<?xml version="1.0" encoding="utf-8"?>
<!-- Generator: Adobe Illustrator 18.1.1, SVG Export Plug-In . SVG Version: 6.00 Build 0)  -->
<svg version="1.1" id="Ebene_1" xmlns="http://www.w3.org/2000/svg" xmlns:xlink="http://www.w3.org/1999/xlink" x="0px" y="0px"
	 viewBox="0 345.6 595.3 150.7" enable-background="new 0 345.6 595.3 150.7" xml:space="preserve">
<path fill="#E5897F" d="M325.5,360.8l0.3-7c0,0,0.6-2.5-4.5-3.7c-5.1-1.2-11,0.3-11.2,2.2c-0.6,2-0.3,7.9-0.3,7.9L325.5,360.8z"/>
<path fill="#D95151" d="M329.8,363.9c-2.5-4.5-9-4.5-12.4-4.8c-3.4,0-9.6-0.6-12.7,3.9c-2.8,4.5,2.5,7.3,2.5,7.3l9.6,0.3l9.6,0.3
	C326.7,371.2,332.3,368.6,329.8,363.9z"/>
<path fill="#E5897F" d="M316.3,392.7c-3,0.1-4.2-0.7-5.1-1.2c-1.7,4.8-8.3,8.7-8.6,20.5c-0.3,9.6,5.9,31.2,8.7,31.5c2,0,3.1,0,3.1,0
	l0,0c0,0,1.1,0,3.1,0c2.5,0,10.7-21.4,11-30.6c0.6-11.8-5.9-16.6-7.3-21.4C320.2,392.1,319,392.7,316.3,392.7z"/>
<path fill="#E5897F" d="M321.5,361.9c-1.4-0.8-2.9-1.1-4.3-1.1c-1.4,0-2.9,0-4.3,0.8c-2.9,1.7-4,3.7-4.3,9c-0.3,4.2,0.8,8.5,2,12.2
	c1.1,0.6,3.5,1,5.7,1c2.6,0,4.9-0.4,5.7-1c1.1-4.2,2.8-8.3,3.1-11.7C325.7,365.8,324.4,363.9,321.5,361.9z"/>
<path fill="#D95151" d="M334.3,442.9v2h-35.1v-2H334.3z"/>
<path class="logo-item" fill="#D95151" d="M161.4,408c-4.2-16.9-19.7-28.1-36.3-23.9c-16.9,4.2-27,17.4-23.9,36.3c2.8,16.9,20.2,27.8,36.8,23.6
	C154.7,440.1,165.3,424.9,161.4,408z M126,393.1c0-2.2,2.2-3.9,5.1-4.2c2.8,0,5.1,1.7,5.1,3.9l0,0c0,2.2-2.2,3.9-5.1,4.2
	C128.5,397,126,395.4,126,393.1z M140.3,408.9c-0.6,2.2-3.4,3.4-6.2,2.5c-3.1-0.6-5.1-3.1-4.5-5.1c0.6-2.2,3.4-3.4,6.2-2.5
	C138.6,404.4,140.9,406.9,140.3,408.9z M156.1,406c-0.6,2.2-3.1,3.4-5.6,2.8c-2.8-0.6-4.5-2.8-4.2-4.8c0.6-2.2,3.1-3.4,5.6-2.8
	C154.7,401.8,156.3,403.8,156.1,406z"/>
<path fill="#D95151" d="M161.7,387.8v-2h34.9v2h-9l14.1,35.7l11-29.2l-2.8-6.5h-7v-2h34.6v2H228l14.1,35.7l13.5-35.7H246v-2h18.6v2
	h-6.7l-22.5,61h-0.8L214,397.3l-19.1,51.5H194l-24.2-61H161.7z"/>
<path fill="#D95151" d="M288.5,345.6v97.3h9.3v2h-35.1v-2h9.3v-95.6h-9.3v-1.7H288.5z"/>
<path fill="#D95151" d="M345.6,442.9v-55.1h-9v-2h25.6v13.8h0.3c0.3-0.8,1.1-2,2-3.7c0.8-1.7,2.2-3.4,3.9-5.1
	c1.7-1.7,3.9-3.1,6.7-4.2c2.8-1.1,6.2-2,10.4-2c6.2,0,10.7,1.7,14.1,5.3c3.4,3.4,5.1,8.2,5.1,14.3V443h9.3v2h-34.6v-2h8.4v-43.6
	c0-3.9-0.8-6.7-2.2-8.4c-1.7-1.7-3.7-2.8-6.5-2.8c-2.2,0-4.2,0.6-6.5,1.7c-2,1.1-3.7,2.5-5.3,4.8c-1.4,2.2-2.8,4.8-3.7,7.9
	c-0.8,3.1-1.4,6.7-1.4,11v29.5h8.7v2h-34.6v-2h9.3L345.6,442.9L345.6,442.9z"/>
<polygon fill="#D95151" points="572.7,439.3 544.6,439.3 544.6,437.6 552.2,437.6 541.2,420.8 529.1,437.6 537.6,437.6 537.6,439.3 
	519.6,439.3 519.6,437.6 526.9,437.6 540.4,419.3 524.1,393.5 518.4,393.5 518.4,392.1 547.1,392.1 547.1,393.5 540.4,393.5 
	549.9,408.9 561.2,393.5 553.6,393.5 553.6,392.1 569.3,392.1 569.3,393.5 563.2,393.5 550.8,410.3 568.2,437.6 572.7,437.6 "/>
<path fill="#D95151" d="M484.2,385.8c-1.4-1.4-3.4-2-5.9-2c-3.1,0-5.3,0.6-7.3,1.7s-3.9,2.5-6.2,4.8c-2.2-1.7-4.8-3.1-7.6-4.5
	c-3.1-1.4-6.5-2-10.7-2s-7.9,0.6-11.2,1.7c-3.4,1.1-6.2,2.5-8.4,4.5c-2.2,2-3.9,4.2-5.3,6.7c-1.1,2.5-2,5.3-2,8.2
	c0,2,0.3,3.7,0.8,5.3c0.6,1.4,1.4,2.8,2.2,3.9c0.8,1.1,1.7,2.2,2.8,3.1s2,1.7,2.8,2.2c-2.8,1.7-5.1,3.1-6.7,5.1
	c-1.7,1.7-3.1,3.4-3.7,5.1c-0.8,1.7-1.4,3.1-1.7,4.2c-0.3,1.1-0.3,2-0.3,2.5c0,2.8,0.6,5.3,2,7c1.4,2,3.1,3.4,5.1,4.5s4.2,2,6.5,2.2
	c2.2,0.6,4.5,0.6,6.2,0.6l17.2,0.3c1.4,0,2.8,0.3,4.5,0.6c1.7,0.3,3.1,1.1,4.5,2c1.4,1.1,2.5,2.2,3.4,3.9c0.8,1.7,1.4,3.9,1.4,6.7
	c0,2.8-0.6,5.3-1.7,7.6c-1.1,2.2-2.5,4.2-4.2,5.9s-3.9,2.8-6.2,3.9c-2.2,0.8-4.8,1.4-7.6,1.4c-3.4,0-6.5-0.6-8.4-1.7
	c-1.7-0.8-2.8-1.7-3.9-2.8c3.9-1.7,6.7-5.6,6.7-10.4c0-6.7-4.8-12.4-11.2-12.4c-5.1,0-9,2.2-11,6.5c-0.8,1.7-1.4,3.7-1.4,5.9
	c0,1.4,0.3,2.8,0.8,4.8c0.6,2,1.7,3.7,3.7,5.6c2,1.7,4.5,3.4,7.9,4.5c3.4,1.4,8.2,2,13.8,2c5.1,0,9.8-0.8,13.8-2.5
	c3.9-1.7,7.3-3.9,10.4-6.5c2.8-2.5,5.1-5.6,6.5-9c1.4-3.4,2.2-7,2.2-10.4c0-4.2-0.8-7.9-2.2-10.4c-1.4-2.8-3.4-5.1-5.9-6.7
	c-2.2-1.7-5.1-2.8-8.4-3.4c-3.1-0.6-6.5-1.1-10.1-1.1H435c-3.1,0-5.6-0.6-7.3-1.7c-2-1.1-2.8-2.8-2.8-5.1c0-1.1,0.3-2.2,0.6-3.4
	c0.6-1.1,2-2.8,4.8-4.5c2,0.8,4.2,1.4,7,2.2c2.8,0.8,6.2,1.1,9.8,1.1c4.5,0,8.4-0.6,11.5-1.7c3.1-1.1,5.6-2.5,7.6-4.5
	s3.4-3.9,4.2-6.2c0.8-2.2,1.4-4.5,1.4-6.7c0-3.7-0.6-6.7-2-8.7c-1.4-2-2.5-3.7-3.7-4.8c2-1.4,3.1-2.2,3.9-2.5s1.4-0.6,2-0.6
	c1.1,0,1.7,0.3,1.7,0.8c0.3,0.6,0.3,1.7,0.6,2.8c0,0.3,0.3,0.8,0.3,1.4c0,0.6,0.3,1.1,0.8,1.7c0.3,0.6,1.1,0.8,1.7,1.4
	c0.8,0.3,1.7,0.6,3.1,0.6c2,0,3.4-0.6,4.5-1.7s1.7-2.5,1.7-4.2C486.2,388.9,485.6,387.2,484.2,385.8z M435.6,464.5
	c0.3-0.8,1.4-1.1,2.2-0.8c1.1,0.3,1.7,1.4,1.4,2c-0.3,0.8-1.4,1.1-2.2,0.8C435.8,466.2,435.3,465.4,435.6,464.5z M428.5,459.2
	c0-0.8,1.1-1.4,2.2-1.4s2,0.8,1.7,1.7c0,0.8-1.1,1.4-2.2,1.4C429.1,460.9,428.3,460,428.5,459.2z M433,465.9
	c-0.3,0.8-1.4,1.1-2.5,0.6c-1.1-0.6-1.7-1.4-1.4-2.2c0.3-0.8,1.4-1.1,2.5-0.6C432.8,464.2,433.3,465.4,433,465.9L433,465.9z
	 M455.5,413.4c-0.6,2.2-1.1,4.2-2.2,5.3c-0.8,1.1-2,2-3.4,2.5c-1.4,0.3-2.8,0.6-4.5,0.6s-3.1-0.3-4.5-0.6c-1.4-0.3-2.5-1.1-3.4-2.5
	c-0.8-1.4-1.7-3.4-2.2-5.9c-0.5-2.5-0.8-5.9-0.8-10.4c0-2.2,0-4.2,0.3-6.2c0.3-2,0.8-3.9,1.7-5.3c0.8-1.7,2-2.8,3.4-3.7
	c1.4-0.8,3.4-1.4,5.6-1.4c2.5,0,4.5,0.6,5.9,1.4c1.4,0.8,2.5,2.2,3.1,3.9c0.8,1.7,1.1,3.7,1.4,5.9c0.3,2.2,0.3,4.8,0.3,7.3
	C456.4,408,456.1,411.1,455.5,413.4z"/>
<g>
	<path fill="#006875" d="M34,485.6h-0.3l-14.9-7c-0.3,0-0.6-0.6-0.6-0.8c0-0.2,0.3-0.6,0.6-0.8l14.9-7H34c0.6,0,0.8,0.6,0.8,0.8
		c0,0.3-0.3,0.6-0.6,0.8L21,477.8l13.2,6.5c0.3,0,0.6,0.6,0.6,0.8C34.8,485.3,34.3,485.6,34,485.6z"/>
	<path fill="#006875" d="M53.1,489c-3.4,0-5.6-1.4-7.6-4.2v9.6h4.2c0.8,0,1.1,0.3,1.1,0.8c0,0.6-0.3,0.8-1.1,0.8h-8.2
		c-0.8,0-1.1-0.3-1.1-0.8c0-0.6,0.3-0.8,1.1-0.8h2.2v-22.2h-2.2c-0.8,0-1.1-0.3-1.1-0.8c0-0.5,0.3-0.8,1.1-0.8h3.9v3.4
		c2.2-2.8,4.5-4.2,7.6-4.2c5.3,0,9.3,4.5,9.3,9.6C62.4,484.5,58.2,489,53.1,489z M52.9,471.8c-4.2,0-7.6,3.7-7.6,7.6
		s3.4,7.9,7.6,7.9s7.6-3.7,7.6-7.6C60.5,475.5,57.4,471.8,52.9,471.8z"/>
	<path fill="#006875" d="M86.9,473.8c-0.3,0-0.3,0-0.6-0.3c-1.1-0.8-2-1.4-2.8-1.4c-2,0-3.4,0.8-8.2,5.3v9.3H83
		c0.8,0,1.1,0.3,1.1,0.8c0,0.5-0.6,0.8-1.1,0.8H69.5c-0.8,0-1.1-0.3-1.1-0.8c0-0.5,0.6-0.8,1.1-0.8h4.2v-14.3h-3.4
		c-0.8,0-1.1-0.3-1.1-0.8c0-0.5,0.6-0.8,1.1-0.8h5.1v4.2c3.9-3.7,5.9-4.8,8.2-4.8c1.1,0,2.2,0.3,3.4,1.4c0.8,0.6,0.8,0.8,0.8,1.4
		C87.7,473.2,87.5,473.8,86.9,473.8z"/>
	<path fill="#006875" d="M102.9,489c-5.3,0-9.6-4.2-9.6-9.6s4.2-9.6,9.6-9.6s9.6,4.2,9.6,9.6C112.8,484.8,108.3,489,102.9,489z
		 M102.9,471.8c-4.5,0-7.9,3.4-7.9,7.6c0,4.2,3.7,7.9,7.9,7.9c4.5,0,7.9-3.4,7.9-7.6C111.1,475.2,107.4,471.8,102.9,471.8z"/>
	<path fill="#006875" d="M138.6,472.4h-2.2v17.2c0,1.7-0.6,3.1-1.7,4.5c-1.4,1.7-3.1,2.2-5.1,2.2h-4.8c-0.8,0-1.1-0.3-1.1-0.8
		c0-0.5,0.3-0.8,1.1-0.8h4.5c2.8,0,5.1-2.2,5.1-5.3v-4.5c-2,2.8-4.2,4.2-7.3,4.2c-4.8,0-8.7-4.5-8.7-9.6s3.9-9.6,8.7-9.6
		c3.1,0,5.3,1.4,7.3,4.2v-3.7h3.9c0.8,0,1.1,0.3,1.1,0.8C139.8,472.1,139.2,472.4,138.6,472.4z M127.4,471.8c-3.9,0-7,3.7-7,7.6
		s3.1,7.6,7,7.6s7-3.7,7-7.6S131.3,471.8,127.4,471.8z"/>
	<path fill="#006875" d="M163.4,473.8c-0.3,0-0.3,0-0.6-0.3c-1.1-0.8-2-1.4-2.8-1.4c-2,0-3.4,0.8-8.2,5.3v9.3h7.6
		c0.8,0,1.1,0.3,1.1,0.8c0,0.5-0.6,0.8-1.1,0.8h-13.5c-0.8,0-1.1-0.3-1.1-0.8c0-0.5,0.6-0.8,1.1-0.8h4.2v-14.3H147
		c-0.8,0-1.1-0.3-1.1-0.8c0-0.5,0.6-0.8,1.1-0.8h4.8v4.2c3.9-3.7,5.9-4.8,8.2-4.8c1.1,0,2.2,0.3,3.4,1.4c0.8,0.6,0.8,0.8,0.8,1.4
		C164.2,473.2,163.9,473.8,163.4,473.8z"/>
	<path fill="#006875" d="M188.7,488.4h-3.9v-2.8c-2.5,2.5-5.1,3.7-8.2,3.7c-3.9,0-6.7-2.2-6.7-5.3c0-3.7,3.7-6.2,9-6.2
		c2,0,3.4,0.3,5.9,0.8v-3.1c0-2-2.2-3.4-5.3-3.4c-1.4,0-2.8,0.3-5.9,1.4c-0.3,0-0.6,0-0.6,0c-0.6,0-0.8-0.3-0.8-0.8
		c0-0.6,0.3-0.8,0.8-0.8c2.2-0.8,5.1-1.4,6.7-1.4c3.9,0,6.7,2.2,6.7,5.3V487h2.2c0.8,0,1.1,0.3,1.1,0.8
		C189.8,488.1,189.2,488.4,188.7,488.4z M184.5,479.7c-1.4-0.3-3.7-0.6-5.3-0.6c-4.5,0-7.6,1.7-7.6,4.5c0,2.2,2,3.7,4.8,3.7
		c3.1,0,5.3-1.1,8.2-3.7L184.5,479.7L184.5,479.7z"/>
	<path fill="#006875" d="M216.2,488.4h-3.1v-13.5c0-1.7-1.4-3.1-2.8-3.1c-1.4,0-2.8,1.1-4.5,3.4v11.2h1.4c0.8,0,1.1,0.3,1.1,0.8
		c0,0.6-0.3,0.8-1.1,0.8h-3.1v-13.2c0-1.7-1.4-3.1-2.8-3.1c-1.4,0-2.8,1.1-4.5,3.4v11.2h1.4c0.8,0,1.1,0.3,1.1,0.8
		c0,0.6-0.6,0.8-1.1,0.8h-4.5c-0.8,0-1.1-0.3-1.1-0.8c0-0.6,0.3-0.8,1.1-0.8h1.4V472h-1.4c-0.8,0-1.1-0.3-1.1-0.8
		c0-0.5,0.3-0.8,1.1-0.8h3.1v2.2c1.4-2,2.8-2.8,4.5-2.8s3.1,0.8,4.2,3.1c1.7-2.2,3.1-3.1,4.8-3.1c2.5,0,4.5,2,4.5,4.5v12.1h1.4
		c0.8,0,1.1,0.3,1.1,0.8C217.4,488.1,217.1,488.4,216.2,488.4z"/>
	<path fill="#006875" d="M241.8,488.4h-3.1v-13.5c0-1.7-1.4-3.1-2.8-3.1c-1.4,0-2.8,1.1-4.5,3.4v11.2h1.4c0.8,0,1.1,0.3,1.1,0.8
		c0,0.6-0.3,0.8-1.1,0.8h-3.1v-13.2c0-1.7-1.4-3.1-2.8-3.1c-1.4,0-2.8,1.1-4.5,3.4v11.2h1.4c0.8,0,1.1,0.3,1.1,0.8
		c0,0.6-0.6,0.8-1.1,0.8h-4.5c-0.8,0-1.1-0.3-1.1-0.8c0-0.6,0.3-0.8,1.1-0.8h1.4V472h-1.4c-0.8,0-1.1-0.3-1.1-0.8
		c0-0.5,0.3-0.8,1.1-0.8h3.1v2.2c1.4-2,2.8-2.8,4.5-2.8s3.1,0.8,4.2,3.1c1.7-2.2,3.1-3.1,4.8-3.1c2.5,0,4.5,2,4.5,4.5v12.1h1.4
		c0.8,0,1.1,0.3,1.1,0.8C242.9,488.1,242.7,488.4,241.8,488.4z"/>
	<path fill="#006875" d="M247.7,480c0.6,4.5,3.9,7.3,8.7,7.3c2.5,0,5.6-0.8,7.3-2.2c0.3-0.3,0.6-0.3,0.6-0.3c0.6,0,0.8,0.3,0.8,0.8
		c0,1.4-5.1,3.4-9,3.4c-5.6,0-10.4-4.5-10.4-9.8c0-5.1,4.2-9,9.6-9c4.2,0,7.6,2.2,9,5.6c0.6,1.4,0.8,2.2,0.8,4.2H247.7z
		 M255.6,471.8c-4.2,0-7.3,2.5-7.9,6.5h16C262.9,474.4,259.8,471.8,255.6,471.8z"/>
	<path fill="#006875" d="M290.8,473.8c-0.3,0-0.3,0-0.6-0.3c-1.1-0.8-2-1.4-2.8-1.4c-2,0-3.4,0.8-8.2,5.3v9.3h7.6
		c0.8,0,1.1,0.3,1.1,0.8c0,0.5-0.6,0.8-1.1,0.8h-13.5c-0.8,0-1.1-0.3-1.1-0.8c0-0.5,0.6-0.8,1.1-0.8h4.2v-14.3h-3.1
		c-0.8,0-1.1-0.3-1.1-0.8c0-0.5,0.6-0.8,1.1-0.8h5.1v4.2c3.9-3.7,5.9-4.8,8.2-4.8c1.1,0,2.2,0.3,3.4,1.4c0.8,0.6,0.8,0.8,0.8,1.4
		C291.6,473.2,291.3,473.8,290.8,473.8z"/>
	<path fill="#006875" d="M314.7,461.4L300.9,491c-0.3,0.6-0.6,0.8-0.8,0.8c-0.6,0-0.8-0.3-0.8-0.8c0-0.3,0-0.3,0.3-0.6l13.8-29.5
		c0.3-0.6,0.6-0.8,0.8-0.8c0.6,0,0.8,0.3,0.8,0.8C314.9,460.9,314.9,461.2,314.7,461.4z"/>
	<path fill="#006875" d="M340.2,478.3l-14.9,7H325c-0.6,0-0.8-0.6-0.8-0.8c0-0.2,0.3-0.6,0.6-0.8l13.2-6.5l-13.2-6.5
		c-0.3,0-0.6-0.6-0.6-0.8c0-0.6,0.6-0.8,0.8-0.8h0.3l14.9,7c0.3,0,0.6,0.6,0.6,0.8C340.8,478,340.5,478.3,340.2,478.3z"/>
</g>
<path fill="#E5897F" d="M545.6,366c-27.4,0-49.7,22.2-49.7,49.7c0,27.4,22.2,49.7,49.7,49.7c27.4,0,49.7-22.2,49.7-49.7
	S573,366,545.6,366z M547.2,463c-26.1,0-47.3-21.2-47.3-47.3c0-26.1,21.2-47.3,47.3-47.3c26.1,0,47.3,21.2,47.3,47.3
	S573.4,463,547.2,463z"/>
<path fill="#D95151" d="M86.4,406.1c-2-3.1-4.8-5.9-7.9-7.9c-3.1-2-6.8-3.4-10.7-4.2c-3.9-0.8-7.6-1.4-11.3-1.7v-0.6
	c2.3-0.3,4.8-0.8,8.2-1.7c3.1-0.8,6.2-2.3,9-3.9c2.8-1.7,5.3-3.9,7.6-6.8c2-2.8,3.1-5.9,3.1-9.8c0-4.5-1.1-8.2-3.1-11
	s-4.8-5.3-8.2-7c-3.4-1.7-6.8-3.1-10.7-3.7c-3.9-0.8-7.6-1.1-11.3-1.1c-3.7,0-6.8,0.3-10.7,0.3c0,0-32.4,0-32.6,0c0,0,0,0.3,0,0.6
	c3.4,0,6.8,0,10.1,0c0,9,0,7.9,0,16.9c0.3,0,0.6,0.3,1.1,0.3c9.6,2.5,15.2,11,13.2,20.5c-1.1,5.6-3.9,10.4-9,13.2
	c-4.2,2.3-8.7,3.1-13.2,0.8c-1.1-0.6-2-1.4-2.5-2.3c-0.3-0.6-0.6-1.4,0-2c0.3-0.3,0.8-0.6,1.4-0.6c1.4,0.6,2.8,0.8,4.5,0.8
	c6.8,0,12.1-4.8,12.1-11.3c0-5.3-3.1-9.8-7.6-11.5c-4.8-2-9.8-0.6-13.8,3.7c-3.1,3.4-4.8,7.6-3.9,12.4c1.1,7,8.2,11.8,13.2,12.7
	c3.7,0.6,7.6,0.6,11.3-0.3c2.9-0.5,5.6-1.8,8.1-3.3c2.3-1.4,4.8-3.4,7.6-3.4c2.5,0,5.1,0,7.6,0c4.5,0,8.2,0.8,10.7,2.8
	c2.5,2,4.5,4.2,5.6,6.8c2,4.5,2.5,9.2,2.5,14.1c0,5.6-0.6,10.1-1.4,13.5c-0.8,3.4-2.3,6.2-3.7,8.2c-3.4,3.9-8.8,5.1-13.8,5.1
	c-2.7,0-5.1,0-7.3-0.3c0-14,0-33.5,0-46.7c-5.9,7.6-13.5,11-22.8,10.7c0,10.4,0,27.3,0,37.7c-1.7,0-3.4,0-5.1,0s-3.4,0-5.1,0v0.3
	c10.9,0,21.8,0,32.6,0c3.5,0,6.9,0,10.4,0c0.1,0,0.2,0,0.3,0c3.4,0,7.3-0.3,11.8-1.1c4.5-0.8,8.4-2.3,12.4-4.2
	c3.9-2,7.3-4.8,9.8-8.2c2.8-3.4,3.9-7.9,3.9-13.2C89.5,413.4,88.3,409.4,86.4,406.1z M20,380.7c0.3-0.8,1.4-1.1,2.5-0.6
	c0.8,0.6,1.4,1.4,1.1,2.3c-0.3,0.8-1.4,1.1-2.5,0.6C20.3,382.4,19.7,381.3,20,380.7z M15.8,373.7c1.1,0,1.7,1.1,1.7,1.7
	c-0.3,0.8-1.1,1.4-2.3,1.1s-1.7-1.1-1.7-1.7C13.8,374,14.6,373.4,15.8,373.7z M13.5,379.9c0.6-0.6,1.7-0.8,2.8-0.3
	c1.1,0.6,1.7,1.7,1.1,2.3c-0.3,0.8-1.4,0.8-2.5,0.3C13.8,381.9,13.2,380.7,13.5,379.9z M45.9,392.6l-3.1,0.3h-2v-10.1c0,0,0,0,0-0.3
	c0-14.6,0-20,0-33.5c0.9,0,1.6-0.1,2.5-0.1c3.8,0,8-0.3,11.6,1.2c2.3,0.8,3.9,2.3,5.3,4.2c1.4,1.9,2.3,4.2,2.8,7
	c0.6,2.8,0.8,6.5,0.8,10.4c0,2.5-0.3,4.8-0.6,7.3c-0.3,2.3-1.1,4.5-2.3,6.5c-1.1,2-3.1,3.9-5.3,5.1
	C53.2,391.4,49.8,392.6,45.9,392.6z"/>
<path fill="#E5897F" d="M310.6,383.7c0.6,2.4,0.9,4.2,0.9,6c0,0.3,0,0.6,0,0.9c0.6,0.3,2.2,1.1,4.7,1.2c2.5-0.1,4.2-0.9,4.8-1.2
	c0-0.3,0-0.6,0-0.9c0-1.8,0.3-3.6,0.9-6C315.3,386.2,310.6,383.7,310.6,383.7z"/>
<path fill="#D95151" d="M334.2,376.1c0,0-2.3-0.3-2.1,2.3c0.2-1.1,1.9-1.3,1.8,0.3c-0.2,3.5-7.3,1.5-9.9-0.2c-4.2-3-6.7-3.1-7-3.1
	s-2.9,0-7.2,2.8c-2.6,1.7-9.9,3.3-9.9-0.2c0-1.7,1.6-1.4,1.8-0.3c0.2-2.6-2-2.4-2-2.4s-2.1-0.1-2.2,2.7c-0.3,4.9,6,7,13.4,5
	c3.7-1.5,4.2-2.7,6-2.8c1.7,0.1,2.2,1.4,5.8,3c7.3,2.3,13.6,0.5,13.6-4.4C336.2,376.1,334.2,376.1,334.2,376.1z"/>
</svg>
