<?xml version="1.0" encoding="utf-8"?>
<!-- Generator: Adobe Illustrator 18.1.1, SVG Export Plug-In . SVG Version: 6.00 Build 0)  -->
<svg version="1.1" id="Ebene_1" xmlns="http://www.w3.org/2000/svg" xmlns:xlink="http://www.w3.org/1999/xlink" x="0px" y="0px"
	 viewBox="0 0 38.8 95.2" enable-background="new 0 0 38.8 95.2" xml:space="preserve">
<path fill="#FFFFFF" d="M28.1,11.1l0.3-7c0,0,0.6-2.6-4.5-3.7C18.8-0.8,13,0.7,12.8,2.6c-0.6,2-0.3,7.9-0.3,7.9L28.1,11.1z"/>
<path fill="#FFFFFF" d="M32.3,14.2c-2.6-4.5-9-4.5-12.4-4.8c-3.4,0-9.6-0.6-12.6,3.9c-2.8,4.5,2.6,7.3,2.6,7.3l9.6,0.3l9.6,0.3
	C29.2,21.6,34.9,19,32.3,14.2z"/>
<path fill="#FFFFFF" d="M18.8,43c-3,0.1-4.3-0.7-5.1-1.2c-1.7,4.8-8.3,8.7-8.6,20.5c-0.3,9.6,6,31.2,8.7,31.5c2,0,3.1,0,3.1,0l0,0
	c0,0,1.1,0,3.1,0c2.6,0,10.7-21.4,10.9-30.6c0.6-11.8-6-16.6-7.3-21.4C22.8,42.5,21.6,43,18.8,43z"/>
<path fill="#FFFFFF" d="M24,12.2c-1.4-0.9-2.9-1.1-4.3-1.1c-1.4,0-2.9,0-4.3,0.9c-2.9,1.7-4,3.7-4.3,9c-0.3,4.3,0.9,8.5,2,12.2
	c1.1,0.6,3.5,1,5.7,1c2.6,0,4.9-0.4,5.7-1c1.1-4.3,2.8-8.3,3.1-11.7C28.3,16.1,27,14.2,24,12.2z"/>
<path fill="#FFFFFF" d="M36.9,93.2v2H1.8v-2H36.9z"/>
<path fill="#FFFFFF" d="M13.2,34.1c0.6,2.4,0.9,4.3,0.9,6c0,0.3,0,0.6,0,0.9c0.6,0.3,2.2,1.1,4.7,1.2c2.6-0.1,4.3-0.9,4.8-1.2
	c0-0.3,0-0.6,0-0.9c0-1.8,0.3-3.6,0.9-6C17.9,36.5,13.2,34.1,13.2,34.1z"/>
<path fill="#FFFFFF" d="M36.8,26.5c0,0-2.3-0.3-2.1,2.3c0.2-1.1,1.9-1.3,1.8,0.3c-0.2,3.5-7.3,1.5-9.9-0.2c-4.3-3-6.7-3.1-7-3.1
	c-0.3,0-2.9,0-7.2,2.8c-2.6,1.7-9.9,3.3-9.9-0.2c0-1.7,1.6-1.4,1.8-0.3c0.2-2.6-2-2.4-2-2.4S0.1,25.5,0,28.3c-0.3,4.9,6,7,13.4,5
	c3.7-1.5,4.3-2.7,6-2.8c1.7,0.1,2.2,1.4,5.8,3c7.3,2.3,13.6,0.5,13.6-4.4C38.8,26.5,36.8,26.5,36.8,26.5z"/>
</svg>
