<?xml version="1.0" encoding="utf-8"?>
<!-- Generator: Adobe Illustrator 17.1.0, SVG Export Plug-In . SVG Version: 6.00 Build 0)  -->
<!DOCTYPE svg PUBLIC "-//W3C//DTD SVG 1.1//EN" "http://www.w3.org/Graphics/SVG/1.1/DTD/svg11.dtd">
<svg version="1.1" id="Ebene_1" xmlns="http://www.w3.org/2000/svg" xmlns:xlink="http://www.w3.org/1999/xlink" x="0px" y="0px"
	 viewBox="26 325.1 560.1 131" enable-background="new 26 325.1 560.1 131" xml:space="preserve">
<path fill="#FFFFFF" d="M332.2,339.4l0.3-6.6c0,0,0.6-2.4-4.2-3.5c-4.8-1.1-10.3,0.3-10.5,2.1c-0.6,1.9-0.3,7.4-0.3,7.4L332.2,339.4
	z"/>
<path fill="#FFFFFF" d="M336.2,342.3c-2.4-4.2-8.5-4.2-11.7-4.5c-3.2,0-9-0.6-11.9,3.7c-2.6,4.2,2.4,6.9,2.4,6.9l9,0.3l9,0.3
	C333.3,349.2,338.6,346.8,336.2,342.3z"/>
<path fill="#FFFFFF" d="M323.5,369.4c-2.8,0.1-4-0.7-4.8-1.1c-1.6,4.5-7.8,8.2-8.1,19.3c-0.3,9,5.6,29.4,8.2,29.6c1.9,0,2.9,0,2.9,0
	l0,0c0,0,1,0,2.9,0c2.4,0,10.1-20.1,10.3-28.8c0.6-11.1-5.6-15.6-6.9-20.1C327.2,368.9,326.1,369.4,323.5,369.4z"/>
<path fill="#FFFFFF" d="M328.4,340.4c-1.3-0.8-2.7-1-4-1s-2.7,0-4,0.8c-2.7,1.6-3.8,3.5-4,8.5c-0.3,4,0.8,8,1.9,11.5
	c1,0.6,3.3,0.9,5.4,0.9c2.4,0,4.6-0.4,5.4-0.9c1-4,2.6-7.8,2.9-11C332.4,344.1,331.2,342.3,328.4,340.4z"/>
<path fill="#FFFFFF" d="M340.5,416.6v1.9h-33v-1.9H340.5z"/>
<path fill="#FFFFFF" d="M177.8,383.8c-4-15.9-18.5-26.4-34.1-22.5c-15.9,4-25.4,16.4-22.5,34.1c2.6,15.9,19,26.2,34.6,22.2
	C171.5,414,181.5,399.7,177.8,383.8z M144.5,369.8c0-2.1,2.1-3.7,4.8-4c2.6,0,4.8,1.6,4.8,3.7l0,0c0,2.1-2.1,3.7-4.8,4
	C146.9,373.5,144.5,372,144.5,369.8z M158,384.7c-0.6,2.1-3.2,3.2-5.8,2.4c-2.9-0.6-4.8-2.9-4.2-4.8c0.6-2.1,3.2-3.2,5.8-2.4
	C156.4,380.4,158.5,382.8,158,384.7z M172.8,381.9c-0.6,2.1-2.9,3.2-5.3,2.6c-2.6-0.6-4.2-2.6-4-4.5c0.6-2.1,2.9-3.2,5.3-2.6
	C171.5,378,173,379.9,172.8,381.9z"/>
<path fill="#FFFFFF" d="M178.1,364.8v-1.9h32.8v1.9h-8.5l13.3,33.6l10.3-27.5l-2.6-6.1h-6.6v-1.9h32.5v1.9h-8.9l13.3,33.6l12.7-33.6
	h-9v-1.9h17.5v1.9h-6.3l-21.2,57.4h-0.8l-19.4-48.4l-18,48.4h-0.8l-22.8-57.4H178.1z"/>
<path fill="#FFFFFF" d="M297.4,325.1v91.5h8.7v1.9h-33v-1.9h8.7v-89.9h-8.7v-1.6H297.4z"/>
<path fill="#FFFFFF" d="M351.1,416.6v-51.8h-8.5v-1.9h24.1v13h0.3c0.3-0.8,1-1.9,1.9-3.5c0.8-1.6,2.1-3.2,3.7-4.8
	c1.6-1.6,3.7-2.9,6.3-4c2.6-1,5.8-1.9,9.8-1.9c5.8,0,10.1,1.6,13.3,5c3.2,3.2,4.8,7.7,4.8,13.5v36.5h8.7v1.9h-32.5v-1.9h7.9v-41
	c0-3.7-0.8-6.3-2.1-7.9c-1.6-1.6-3.5-2.6-6.1-2.6c-2.1,0-4,0.6-6.1,1.6c-1.9,1-3.5,2.4-5,4.5c-1.3,2.1-2.6,4.5-3.5,7.4
	c-0.8,2.9-1.3,6.3-1.3,10.3v27.8h8.2v1.9h-32.5v-1.9h8.7L351.1,416.6L351.1,416.6z"/>
<polygon fill="#FFFFFF" points="564.7,413.3 538.3,413.3 538.3,411.7 545.5,411.7 535.1,395.9 523.7,411.7 531.7,411.7 531.7,413.3 
	514.8,413.3 514.8,411.7 521.7,411.7 534.4,394.4 519,370.2 513.7,370.2 513.7,368.9 540.7,368.9 540.7,370.2 534.4,370.2 
	543.3,384.7 553.9,370.2 546.8,370.2 546.8,368.9 561.5,368.9 561.5,370.2 555.8,370.2 544.1,386 560.5,411.7 564.7,411.7 "/>
<path fill="#FFFFFF" d="M481.5,362.9c-1.3-1.3-3.2-1.9-5.6-1.9c-2.9,0-5,0.6-6.9,1.6c-1.9,1-3.7,2.4-5.8,4.5
	c-2.1-1.6-4.5-2.9-7.1-4.2c-2.9-1.3-6.1-1.9-10.1-1.9s-7.4,0.6-10.5,1.6c-3.2,1-5.8,2.4-7.9,4.2s-3.7,4-5,6.3c-1,2.4-1.9,5-1.9,7.7
	c0,1.9,0.3,3.5,0.8,5c0.6,1.3,1.3,2.6,2.1,3.7c0.8,1,1.6,2.1,2.6,2.9s1.9,1.6,2.6,2.1c-2.6,1.6-4.8,2.9-6.3,4.8
	c-1.6,1.6-2.9,3.2-3.5,4.8c-0.8,1.6-1.3,2.9-1.6,4c-0.3,1-0.3,1.9-0.3,2.4c0,2.6,0.6,5,1.9,6.6c1.3,1.9,2.9,3.2,4.8,4.2
	c1.9,1,4,1.9,6.1,2.1c2.1,0.6,4.2,0.6,5.8,0.6l16.2,0.3c1.3,0,2.6,0.3,4.2,0.6c1.6,0.3,2.9,1,4.2,1.9c1.3,1,2.4,2.1,3.2,3.7
	c0.8,1.6,1.3,3.7,1.3,6.3c0,2.6-0.6,5-1.6,7.1c-1,2.1-2.4,4-4,5.6c-1.6,1.6-3.7,2.6-5.8,3.7c-2.1,0.8-4.5,1.3-7.1,1.3
	c-3.2,0-6.1-0.6-7.9-1.6c-1.6-0.8-2.6-1.6-3.7-2.6c3.7-1.6,6.3-5.3,6.3-9.8c0-6.3-4.5-11.7-10.5-11.7c-4.8,0-8.5,2.1-10.3,6.1
	c-0.8,1.6-1.3,3.5-1.3,5.6c0,1.3,0.3,2.6,0.8,4.5c0.6,1.9,1.6,3.5,3.5,5.3c1.9,1.6,4.2,3.2,7.4,4.2c3.2,1.3,7.7,1.9,13,1.9
	c4.8,0,9.2-0.8,13-2.4c3.7-1.6,6.9-3.7,9.8-6.1c2.6-2.4,4.8-5.3,6.1-8.5s2.1-6.6,2.1-9.8c0-4-0.8-7.4-2.1-9.8
	c-1.3-2.6-3.2-4.8-5.6-6.3c-2.1-1.6-4.8-2.6-7.9-3.2c-2.9-0.6-6.1-1-9.5-1h-14.3c-2.9,0-5.3-0.6-6.9-1.6c-1.9-1-2.6-2.6-2.6-4.8
	c0-1,0.3-2.1,0.6-3.2c0.6-1,1.9-2.6,4.5-4.2c1.9,0.8,4,1.3,6.6,2.1c2.6,0.8,5.8,1,9.2,1c4.2,0,7.9-0.6,10.8-1.6
	c2.9-1,5.3-2.4,7.1-4.2c1.9-1.9,3.2-3.7,4-5.8c0.8-2.1,1.3-4.2,1.3-6.3c0-3.5-0.6-6.3-1.9-8.2c-1.3-1.9-2.4-3.5-3.5-4.5
	c1.9-1.3,2.9-2.1,3.7-2.4c0.8-0.3,1.3-0.6,1.9-0.6c1,0,1.6,0.3,1.6,0.8c0.3,0.6,0.3,1.6,0.6,2.6c0,0.3,0.3,0.8,0.3,1.3
	s0.3,1,0.8,1.6c0.3,0.6,1,0.8,1.6,1.3c0.8,0.3,1.6,0.6,2.9,0.6c1.9,0,3.2-0.6,4.2-1.6c1-1,1.6-2.4,1.6-4
	C483.4,365.8,482.8,364.3,481.5,362.9z M435.8,437c0.3-0.8,1.3-1,2.1-0.8c1,0.3,1.6,1.3,1.3,1.9c-0.3,0.8-1.3,1-2.1,0.8
	C436,438.6,435.5,437.8,435.8,437z M429.1,432c0-0.8,1-1.3,2.1-1.3c1,0,1.9,0.8,1.6,1.6c0,0.8-1,1.3-2.1,1.3
	C429.7,433.6,428.9,432.7,429.1,432z M433.3,438.3c-0.3,0.8-1.3,1-2.4,0.6c-1-0.6-1.6-1.3-1.3-2.1c0.3-0.8,1.3-1,2.4-0.6
	C433.1,436.7,433.6,437.8,433.3,438.3L433.3,438.3z M454.5,388.9c-0.6,2.1-1,4-2.1,5c-0.8,1-1.9,1.9-3.2,2.4
	c-1.3,0.3-2.6,0.6-4.2,0.6c-1.6,0-2.9-0.3-4.2-0.6c-1.3-0.3-2.4-1-3.2-2.4c-0.8-1.3-1.6-3.2-2.1-5.6c-0.5-2.4-0.8-5.6-0.8-9.8
	c0-2.1,0-4,0.3-5.8c0.3-1.9,0.8-3.7,1.6-5c0.8-1.6,1.9-2.6,3.2-3.5c1.3-0.8,3.2-1.3,5.3-1.3c2.4,0,4.2,0.6,5.6,1.3s2.4,2.1,2.9,3.7
	c0.8,1.6,1,3.5,1.3,5.6c0.3,2.1,0.3,4.5,0.3,6.9C455.3,383.8,455.1,386.7,454.5,388.9z"/>
<path fill="#FFFFFF" d="M539.3,344.3c-25.8,0-46.8,20.9-46.8,46.8c0,25.8,20.9,46.8,46.8,46.8c25.8,0,46.8-20.9,46.8-46.8
	S565,344.3,539.3,344.3z M540.8,435.6c-24.6,0-44.5-19.9-44.5-44.5c0-24.6,19.9-44.5,44.5-44.5c24.6,0,44.5,19.9,44.5,44.5
	S565.4,435.6,540.8,435.6z"/>
<path fill="#FFFFFF" d="M107.5,381.9c-1.9-2.9-4.5-5.6-7.5-7.5c-2.9-1.9-6.4-3.2-10.1-4c-3.7-0.8-7.2-1.3-10.7-1.6v-0.6
	c2.2-0.3,4.5-0.8,7.7-1.6c2.9-0.8,5.8-2.2,8.5-3.7c2.6-1.6,5-3.7,7.2-6.4c1.9-2.6,2.9-5.6,2.9-9.2c0-4.2-1-7.7-2.9-10.4
	c-1.9-2.6-4.5-5-7.7-6.6s-6.4-2.9-10.1-3.5c-3.7-0.8-7.2-1-10.7-1s-6.4,0.3-10.1,0.3c0,0-30.6,0-30.7,0c0,0,0,1.3,0,1.6
	c3.2,0,6.4,0,9.5,0c0,8.5,0,6.5,0,14.9c0.3,0,0.6,0.3,1,0.3c9.1,2.4,14.3,10.4,12.5,19.3c-1,5.3-3.7,9.8-8.5,12.5
	c-4,2.2-8.2,2.9-12.5,0.8c-1-0.6-1.9-1.3-2.4-2.2c-0.3-0.6-0.6-1.3,0-1.9c0.3-0.3,0.8-0.6,1.3-0.6c1.3,0.6,2.6,0.8,4.2,0.8
	c6.4,0,11.4-4.5,11.4-10.7c0-5-2.9-9.2-7.2-10.8c-4.5-1.9-9.2-0.6-13,3.5c-2.9,3.2-4.5,7.2-3.7,11.7c1,6.6,7.7,11.1,12.5,12
	c3.5,0.6,7.2,0.6,10.7-0.3c2.7-0.5,5.3-1.7,7.6-3.1c2.2-1.3,4.5-3.2,7.2-3.2c2.4,0,4.8,0,7.2,0c4.2,0,7.7,0.8,10.1,2.6
	s4.2,4,5.3,6.4c1.9,4.2,2.4,8.7,2.4,13.3c0,5.3-0.6,9.5-1.3,12.7s-2.2,5.8-3.5,7.7c-3.2,3.7-8.3,4.8-13,4.8c-2.5,0-4.8,0-6.9-0.3
	c0-13.2,0-41.6,0-54.1c-5.6,7.2-12.7,13.4-21.5,13.1c0,9.8,0,31.8,0,41.6c-1.6,0-3.2,0-4.8,0c-1.6,0-3.2,0-4.8,0v1.3
	c10.3,0,20.6,0,30.7,0c3.3,0,6.5,0,9.8,0c0.1,0,0.2,0,0.3,0c3.2,0,6.9-0.3,11.1-1c4.2-0.8,7.9-2.2,11.7-4c3.7-1.9,6.9-4.5,9.2-7.7
	c2.6-3.2,3.7-7.5,3.7-12.5C110.4,388.8,109.3,385,107.5,381.9z M44.9,358c0.3-0.8,1.3-1,2.4-0.6c0.8,0.6,1.3,1.3,1,2.2
	c-0.3,0.8-1.3,1-2.4,0.6C45.1,359.6,44.6,358.5,44.9,358z M40.9,351.4c1,0,1.6,1,1.6,1.6c-0.3,0.8-1,1.3-2.2,1
	c-1.1-0.3-1.6-1-1.6-1.6C39,351.7,39.8,351.1,40.9,351.4z M38.7,357.2c0.6-0.6,1.6-0.8,2.6-0.3c1,0.6,1.6,1.6,1,2.2
	c-0.3,0.8-1.3,0.8-2.4,0.3C39,359.1,38.4,358,38.7,357.2z M69.3,369.2l-2.9,0.3h-1.9V360c0,0,0,0,0-0.3c0-13.8,0-18.9,0-31.6
	c0.8,0,1.5-0.1,2.4-0.1c3.6,0,7.5-0.3,10.9,1.1c2.2,0.8,3.7,2.2,5,4s2.2,4,2.6,6.6c0.6,2.6,0.8,6.1,0.8,9.8c0,2.4-0.3,4.5-0.6,6.9
	c-0.3,2.2-1,4.2-2.2,6.1c-1,1.9-2.9,3.7-5,4.8C76.2,368.1,73,369.2,69.3,369.2z"/>
<path fill="#FFFFFF" d="M318.2,361c0.6,2.3,0.8,4,0.8,5.6c0,0.3,0,0.6,0,0.8c0.6,0.3,2.1,1,4.4,1.1c2.4-0.1,4-0.8,4.5-1.1
	c0-0.3,0-0.6,0-0.8c0-1.7,0.3-3.4,0.8-5.6C322.6,363.3,318.2,361,318.2,361z"/>
<path fill="#FFFFFF" d="M340.4,353.8c0,0-2.2-0.3-2,2.2c0.2-1,1.8-1.2,1.7,0.3c-0.2,3.3-6.9,1.4-9.3-0.2c-4-2.8-6.3-2.9-6.6-2.9
	c-0.3,0-2.7,0-6.8,2.6c-2.4,1.6-9.3,3.1-9.3-0.2c0-1.6,1.5-1.3,1.7-0.3c0.2-2.4-1.9-2.3-1.9-2.3s-2-0.1-2.1,2.5
	c-0.3,4.6,5.6,6.6,12.6,4.7c3.5-1.4,4-2.5,5.6-2.6c1.6,0.1,2.1,1.3,5.5,2.8c6.9,2.2,12.8,0.5,12.8-4.1
	C342.3,353.8,340.4,353.8,340.4,353.8z"/>
</svg>
