<svg xmlns="http://www.w3.org/2000/svg" viewBox="0 0 38.8 95.2"><path fill="#FFF" d="M28.1 11.1l.3-7S29 1.5 23.9.4C18.8-.8 13 .7 12.8 2.6c-.6 2-.3 7.9-.3 7.9l15.6.6zM32.3 14.2c-2.6-4.5-9-4.5-12.4-4.8-3.4 0-9.6-.6-12.6 3.9-2.8 4.5 2.6 7.3 2.6 7.3l9.6.3 9.6.3c.1.4 5.8-2.2 3.2-7zM18.8 43c-3 .1-4.3-.7-5.1-1.2-1.7 4.8-8.3 8.7-8.6 20.5-.3 9.6 6 31.2 8.7 31.5H20c2.6 0 10.7-21.4 10.9-30.6.6-11.8-6-16.6-7.3-21.4-.8.7-2 1.2-4.8 1.2z"/><path fill="#FFF" d="M24 12.2c-1.4-.9-2.9-1.1-4.3-1.1s-2.9 0-4.3.9c-2.9 1.7-4 3.7-4.3 9-.3 4.3.9 8.5 2 12.2 1.1.6 3.5 1 5.7 1 2.6 0 4.9-.4 5.7-1 1.1-4.3 2.8-8.3 3.1-11.7.7-5.4-.6-7.3-3.6-9.3zM36.9 93.2v2H1.8v-2h35.1z"/><path fill="#FFF" d="M13.2 34.1c.6 2.4.9 4.3.9 6v.9c.6.3 2.2 1.1 4.7 1.2 2.6-.1 4.3-.9 4.8-1.2v-.9c0-1.8.3-3.6.9-6-6.6 2.4-11.3 0-11.3 0zM36.8 26.5s-2.3-.3-2.1 2.3c.2-1.1 1.9-1.3 1.8.3-.2 3.5-7.3 1.5-9.9-.2-4.3-3-6.7-3.1-7-3.1-.3 0-2.9 0-7.2 2.8-2.6 1.7-9.9 3.3-9.9-.2 0-1.7 1.6-1.4 1.8-.3.2-2.6-2-2.4-2-2.4S.1 25.5 0 28.3c-.3 4.9 6 7 13.4 5 3.7-1.5 4.3-2.7 6-2.8 1.7.1 2.2 1.4 5.8 3 7.3 2.3 13.6.5 13.6-4.4 0-2.6-2-2.6-2-2.6z"/></svg>