<svg xmlns="http://www.w3.org/2000/svg" viewBox="0 345.6 595.3 150.7"><path fill="#E5897F" d="M325.5 360.8l.3-7s.6-2.5-4.5-3.7c-5.1-1.2-11 .3-11.2 2.2-.6 2-.3 7.9-.3 7.9l15.7.6z"/><path fill="#D95151" d="M329.8 363.9c-2.5-4.5-9-4.5-12.4-4.8-3.4 0-9.6-.6-12.7 3.9-2.8 4.5 2.5 7.3 2.5 7.3l9.6.3 9.6.3c.3.3 5.9-2.3 3.4-7z"/><path fill="#E5897F" d="M316.3 392.7c-3 .1-4.2-.7-5.1-1.2-1.7 4.8-8.3 8.7-8.6 20.5-.3 9.6 5.9 31.2 8.7 31.5h6.2c2.5 0 10.7-21.4 11-30.6.6-11.8-5.9-16.6-7.3-21.4-1 .6-2.2 1.2-4.9 1.2zM321.5 361.9c-1.4-.8-2.9-1.1-4.3-1.1s-2.9 0-4.3.8c-2.9 1.7-4 3.7-4.3 9-.3 4.2.8 8.5 2 12.2 1.1.6 3.5 1 5.7 1 2.6 0 4.9-.4 5.7-1 1.1-4.2 2.8-8.3 3.1-11.7.6-5.3-.7-7.2-3.6-9.2z"/><path fill="#D95151" d="M334.3 442.9v2h-35.1v-2h35.1z"/><path class="logo-item" fill="#D95151" d="M161.4 408c-4.2-16.9-19.7-28.1-36.3-23.9-16.9 4.2-27 17.4-23.9 36.3 2.8 16.9 20.2 27.8 36.8 23.6 16.7-3.9 27.3-19.1 23.4-36zM126 393.1c0-2.2 2.2-3.9 5.1-4.2 2.8 0 5.1 1.7 5.1 3.9s-2.2 3.9-5.1 4.2c-2.6 0-5.1-1.6-5.1-3.9zm14.3 15.8c-.6 2.2-3.4 3.4-6.2 2.5-3.1-.6-5.1-3.1-4.5-5.1.6-2.2 3.4-3.4 6.2-2.5 2.8.6 5.1 3.1 4.5 5.1zm15.8-2.9c-.6 2.2-3.1 3.4-5.6 2.8-2.8-.6-4.5-2.8-4.2-4.8.6-2.2 3.1-3.4 5.6-2.8 2.8.6 4.4 2.6 4.2 4.8z"/><path fill="#D95151" d="M161.7 387.8v-2h34.9v2h-9l14.1 35.7 11-29.2-2.8-6.5h-7v-2h34.6v2H228l14.1 35.7 13.5-35.7H246v-2h18.6v2h-6.7l-22.5 61h-.8L214 397.3l-19.1 51.5h-.9l-24.2-61h-8.1z"/><path fill="#D95151" d="M288.5 345.6v97.3h9.3v2h-35.1v-2h9.3v-95.6h-9.3v-1.7h25.8zM345.6 442.9v-55.1h-9v-2h25.6v13.8h.3c.3-.8 1.1-2 2-3.7.8-1.7 2.2-3.4 3.9-5.1 1.7-1.7 3.9-3.1 6.7-4.2 2.8-1.1 6.2-2 10.4-2 6.2 0 10.7 1.7 14.1 5.3 3.4 3.4 5.1 8.2 5.1 14.3V443h9.3v2h-34.6v-2h8.4v-43.6c0-3.9-.8-6.7-2.2-8.4-1.7-1.7-3.7-2.8-6.5-2.8-2.2 0-4.2.6-6.5 1.7-2 1.1-3.7 2.5-5.3 4.8-1.4 2.2-2.8 4.8-3.7 7.9-.8 3.1-1.4 6.7-1.4 11v29.5h8.7v2h-34.6v-2h9.3v-.2zM572.7 439.3h-28.1v-1.7h7.6l-11-16.8-12.1 16.8h8.5v1.7h-18v-1.7h7.3l13.5-18.3-16.3-25.8h-5.7v-1.4h28.7v1.4h-6.7l9.5 15.4 11.3-15.4h-7.6v-1.4h15.7v1.4h-6.1l-12.4 16.8 17.4 27.3h4.5M484.2 385.8c-1.4-1.4-3.4-2-5.9-2-3.1 0-5.3.6-7.3 1.7s-3.9 2.5-6.2 4.8c-2.2-1.7-4.8-3.1-7.6-4.5-3.1-1.4-6.5-2-10.7-2s-7.9.6-11.2 1.7c-3.4 1.1-6.2 2.5-8.4 4.5s-3.9 4.2-5.3 6.7c-1.1 2.5-2 5.3-2 8.2 0 2 .3 3.7.8 5.3.6 1.4 1.4 2.8 2.2 3.9.8 1.1 1.7 2.2 2.8 3.1s2 1.7 2.8 2.2c-2.8 1.7-5.1 3.1-6.7 5.1-1.7 1.7-3.1 3.4-3.7 5.1-.8 1.7-1.4 3.1-1.7 4.2-.3 1.1-.3 2-.3 2.5 0 2.8.6 5.3 2 7 1.4 2 3.1 3.4 5.1 4.5s4.2 2 6.5 2.2c2.2.6 4.5.6 6.2.6l17.2.3c1.4 0 2.8.3 4.5.6 1.7.3 3.1 1.1 4.5 2 1.4 1.1 2.5 2.2 3.4 3.9.8 1.7 1.4 3.9 1.4 6.7 0 2.8-.6 5.3-1.7 7.6-1.1 2.2-2.5 4.2-4.2 5.9s-3.9 2.8-6.2 3.9c-2.2.8-4.8 1.4-7.6 1.4-3.4 0-6.5-.6-8.4-1.7-1.7-.8-2.8-1.7-3.9-2.8 3.9-1.7 6.7-5.6 6.7-10.4 0-6.7-4.8-12.4-11.2-12.4-5.1 0-9 2.2-11 6.5-.8 1.7-1.4 3.7-1.4 5.9 0 1.4.3 2.8.8 4.8.6 2 1.7 3.7 3.7 5.6 2 1.7 4.5 3.4 7.9 4.5 3.4 1.4 8.2 2 13.8 2 5.1 0 9.8-.8 13.8-2.5 3.9-1.7 7.3-3.9 10.4-6.5 2.8-2.5 5.1-5.6 6.5-9 1.4-3.4 2.2-7 2.2-10.4 0-4.2-.8-7.9-2.2-10.4-1.4-2.8-3.4-5.1-5.9-6.7-2.2-1.7-5.1-2.8-8.4-3.4-3.1-.6-6.5-1.1-10.1-1.1H435c-3.1 0-5.6-.6-7.3-1.7-2-1.1-2.8-2.8-2.8-5.1 0-1.1.3-2.2.6-3.4.6-1.1 2-2.8 4.8-4.5 2 .8 4.2 1.4 7 2.2 2.8.8 6.2 1.1 9.8 1.1 4.5 0 8.4-.6 11.5-1.7 3.1-1.1 5.6-2.5 7.6-4.5s3.4-3.9 4.2-6.2c.8-2.2 1.4-4.5 1.4-6.7 0-3.7-.6-6.7-2-8.7-1.4-2-2.5-3.7-3.7-4.8 2-1.4 3.1-2.2 3.9-2.5s1.4-.6 2-.6c1.1 0 1.7.3 1.7.8.3.6.3 1.7.6 2.8 0 .3.3.8.3 1.4 0 .6.3 1.1.8 1.7.3.6 1.1.8 1.7 1.4.8.3 1.7.6 3.1.6 2 0 3.4-.6 4.5-1.7s1.7-2.5 1.7-4.2c-.2-1.7-.8-3.4-2.2-4.8zm-48.6 78.7c.3-.8 1.4-1.1 2.2-.8 1.1.3 1.7 1.4 1.4 2-.3.8-1.4 1.1-2.2.8-1.2-.3-1.7-1.1-1.4-2zm-7.1-5.3c0-.8 1.1-1.4 2.2-1.4s2 .8 1.7 1.7c0 .8-1.1 1.4-2.2 1.4s-1.9-.9-1.7-1.7zm4.5 6.7c-.3.8-1.4 1.1-2.5.6-1.1-.6-1.7-1.4-1.4-2.2.3-.8 1.4-1.1 2.5-.6 1.2.5 1.7 1.7 1.4 2.2zm22.5-52.5c-.6 2.2-1.1 4.2-2.2 5.3-.8 1.1-2 2-3.4 2.5-1.4.3-2.8.6-4.5.6s-3.1-.3-4.5-.6-2.5-1.1-3.4-2.5c-.8-1.4-1.7-3.4-2.2-5.9-.5-2.5-.8-5.9-.8-10.4 0-2.2 0-4.2.3-6.2s.8-3.9 1.7-5.3c.8-1.7 2-2.8 3.4-3.7 1.4-.8 3.4-1.4 5.6-1.4 2.5 0 4.5.6 5.9 1.4 1.4.8 2.5 2.2 3.1 3.9.8 1.7 1.1 3.7 1.4 5.9.3 2.2.3 4.8.3 7.3.2 3.7-.1 6.8-.7 9.1z"/><g fill="#006875"><path d="M34 485.6h-.3l-14.9-7c-.3 0-.6-.6-.6-.8 0-.2.3-.6.6-.8l14.9-7h.3c.6 0 .8.6.8.8 0 .3-.3.6-.6.8L21 477.8l13.2 6.5c.3 0 .6.6.6.8 0 .2-.5.5-.8.5zM53.1 489c-3.4 0-5.6-1.4-7.6-4.2v9.6h4.2c.8 0 1.1.3 1.1.8 0 .6-.3.8-1.1.8h-8.2c-.8 0-1.1-.3-1.1-.8 0-.6.3-.8 1.1-.8h2.2v-22.2h-2.2c-.8 0-1.1-.3-1.1-.8s.3-.8 1.1-.8h3.9v3.4c2.2-2.8 4.5-4.2 7.6-4.2 5.3 0 9.3 4.5 9.3 9.6.1 5.1-4.1 9.6-9.2 9.6zm-.2-17.2c-4.2 0-7.6 3.7-7.6 7.6s3.4 7.9 7.6 7.9 7.6-3.7 7.6-7.6c0-4.2-3.1-7.9-7.6-7.9zM86.9 473.8c-.3 0-.3 0-.6-.3-1.1-.8-2-1.4-2.8-1.4-2 0-3.4.8-8.2 5.3v9.3H83c.8 0 1.1.3 1.1.8s-.6.8-1.1.8H69.5c-.8 0-1.1-.3-1.1-.8s.6-.8 1.1-.8h4.2v-14.3h-3.4c-.8 0-1.1-.3-1.1-.8s.6-.8 1.1-.8h5.1v4.2c3.9-3.7 5.9-4.8 8.2-4.8 1.1 0 2.2.3 3.4 1.4.8.6.8.8.8 1.4-.1.2-.3.8-.9.8zM102.9 489c-5.3 0-9.6-4.2-9.6-9.6s4.2-9.6 9.6-9.6 9.6 4.2 9.6 9.6c.3 5.4-4.2 9.6-9.6 9.6zm0-17.2c-4.5 0-7.9 3.4-7.9 7.6 0 4.2 3.7 7.9 7.9 7.9 4.5 0 7.9-3.4 7.9-7.6.3-4.5-3.4-7.9-7.9-7.9zM138.6 472.4h-2.2v17.2c0 1.7-.6 3.1-1.7 4.5-1.4 1.7-3.1 2.2-5.1 2.2h-4.8c-.8 0-1.1-.3-1.1-.8s.3-.8 1.1-.8h4.5c2.8 0 5.1-2.2 5.1-5.3v-4.5c-2 2.8-4.2 4.2-7.3 4.2-4.8 0-8.7-4.5-8.7-9.6s3.9-9.6 8.7-9.6c3.1 0 5.3 1.4 7.3 4.2v-3.7h3.9c.8 0 1.1.3 1.1.8.4.9-.2 1.2-.8 1.2zm-11.2-.6c-3.9 0-7 3.7-7 7.6s3.1 7.6 7 7.6 7-3.7 7-7.6-3.1-7.6-7-7.6zM163.4 473.8c-.3 0-.3 0-.6-.3-1.1-.8-2-1.4-2.8-1.4-2 0-3.4.8-8.2 5.3v9.3h7.6c.8 0 1.1.3 1.1.8s-.6.8-1.1.8h-13.5c-.8 0-1.1-.3-1.1-.8s.6-.8 1.1-.8h4.2v-14.3H147c-.8 0-1.1-.3-1.1-.8s.6-.8 1.1-.8h4.8v4.2c3.9-3.7 5.9-4.8 8.2-4.8 1.1 0 2.2.3 3.4 1.4.8.6.8.8.8 1.4 0 .2-.3.8-.8.8zM188.7 488.4h-3.9v-2.8c-2.5 2.5-5.1 3.7-8.2 3.7-3.9 0-6.7-2.2-6.7-5.3 0-3.7 3.7-6.2 9-6.2 2 0 3.4.3 5.9.8v-3.1c0-2-2.2-3.4-5.3-3.4-1.4 0-2.8.3-5.9 1.4h-.6c-.6 0-.8-.3-.8-.8 0-.6.3-.8.8-.8 2.2-.8 5.1-1.4 6.7-1.4 3.9 0 6.7 2.2 6.7 5.3V487h2.2c.8 0 1.1.3 1.1.8.1.3-.5.6-1 .6zm-4.2-8.7c-1.4-.3-3.7-.6-5.3-.6-4.5 0-7.6 1.7-7.6 4.5 0 2.2 2 3.7 4.8 3.7 3.1 0 5.3-1.1 8.2-3.7l-.1-3.9zM216.2 488.4h-3.1v-13.5c0-1.7-1.4-3.1-2.8-3.1s-2.8 1.1-4.5 3.4v11.2h1.4c.8 0 1.1.3 1.1.8 0 .6-.3.8-1.1.8h-3.1v-13.2c0-1.7-1.4-3.1-2.8-3.1s-2.8 1.1-4.5 3.4v11.2h1.4c.8 0 1.1.3 1.1.8 0 .6-.6.8-1.1.8h-4.5c-.8 0-1.1-.3-1.1-.8 0-.6.3-.8 1.1-.8h1.4V472h-1.4c-.8 0-1.1-.3-1.1-.8s.3-.8 1.1-.8h3.1v2.2c1.4-2 2.8-2.8 4.5-2.8s3.1.8 4.2 3.1c1.7-2.2 3.1-3.1 4.8-3.1 2.5 0 4.5 2 4.5 4.5v12.1h1.4c.8 0 1.1.3 1.1.8.1.9-.2 1.2-1.1 1.2zM241.8 488.4h-3.1v-13.5c0-1.7-1.4-3.1-2.8-3.1s-2.8 1.1-4.5 3.4v11.2h1.4c.8 0 1.1.3 1.1.8 0 .6-.3.8-1.1.8h-3.1v-13.2c0-1.7-1.4-3.1-2.8-3.1s-2.8 1.1-4.5 3.4v11.2h1.4c.8 0 1.1.3 1.1.8 0 .6-.6.8-1.1.8h-4.5c-.8 0-1.1-.3-1.1-.8 0-.6.3-.8 1.1-.8h1.4V472h-1.4c-.8 0-1.1-.3-1.1-.8s.3-.8 1.1-.8h3.1v2.2c1.4-2 2.8-2.8 4.5-2.8s3.1.8 4.2 3.1c1.7-2.2 3.1-3.1 4.8-3.1 2.5 0 4.5 2 4.5 4.5v12.1h1.4c.8 0 1.1.3 1.1.8 0 .9-.2 1.2-1.1 1.2zM247.7 480c.6 4.5 3.9 7.3 8.7 7.3 2.5 0 5.6-.8 7.3-2.2.3-.3.6-.3.6-.3.6 0 .8.3.8.8 0 1.4-5.1 3.4-9 3.4-5.6 0-10.4-4.5-10.4-9.8 0-5.1 4.2-9 9.6-9 4.2 0 7.6 2.2 9 5.6.6 1.4.8 2.2.8 4.2h-17.4zm7.9-8.2c-4.2 0-7.3 2.5-7.9 6.5h16c-.8-3.9-3.9-6.5-8.1-6.5zM290.8 473.8c-.3 0-.3 0-.6-.3-1.1-.8-2-1.4-2.8-1.4-2 0-3.4.8-8.2 5.3v9.3h7.6c.8 0 1.1.3 1.1.8s-.6.8-1.1.8h-13.5c-.8 0-1.1-.3-1.1-.8s.6-.8 1.1-.8h4.2v-14.3h-3.1c-.8 0-1.1-.3-1.1-.8s.6-.8 1.1-.8h5.1v4.2c3.9-3.7 5.9-4.8 8.2-4.8 1.1 0 2.2.3 3.4 1.4.8.6.8.8.8 1.4-.3.2-.6.8-1.1.8zM314.7 461.4L300.9 491c-.3.6-.6.8-.8.8-.6 0-.8-.3-.8-.8 0-.3 0-.3.3-.6l13.8-29.5c.3-.6.6-.8.8-.8.6 0 .8.3.8.8-.1 0-.1.3-.3.5zM340.2 478.3l-14.9 7h-.3c-.6 0-.8-.6-.8-.8 0-.2.3-.6.6-.8l13.2-6.5-13.2-6.5c-.3 0-.6-.6-.6-.8 0-.6.6-.8.8-.8h.3l14.9 7c.3 0 .6.6.6.8 0 1.1-.3 1.4-.6 1.4z"/></g><path fill="#E5897F" d="M545.6 366c-27.4 0-49.7 22.2-49.7 49.7 0 27.4 22.2 49.7 49.7 49.7 27.4 0 49.7-22.2 49.7-49.7S573 366 545.6 366zm1.6 97c-26.1 0-47.3-21.2-47.3-47.3 0-26.1 21.2-47.3 47.3-47.3 26.1 0 47.3 21.2 47.3 47.3S573.4 463 547.2 463z"/><path fill="#D95151" d="M86.4 406.1c-2-3.1-4.8-5.9-7.9-7.9-3.1-2-6.8-3.4-10.7-4.2-3.9-.8-7.6-1.4-11.3-1.7v-.6c2.3-.3 4.8-.8 8.2-1.7 3.1-.8 6.2-2.3 9-3.9 2.8-1.7 5.3-3.9 7.6-6.8 2-2.8 3.1-5.9 3.1-9.8 0-4.5-1.1-8.2-3.1-11s-4.8-5.3-8.2-7c-3.4-1.7-6.8-3.1-10.7-3.7-3.9-.8-7.6-1.1-11.3-1.1-3.7 0-6.8.3-10.7.3H7.8v.6h10.1v16.9c.3 0 .6.3 1.1.3 9.6 2.5 15.2 11 13.2 20.5-1.1 5.6-3.9 10.4-9 13.2-4.2 2.3-8.7 3.1-13.2.8-1.1-.6-2-1.4-2.5-2.3-.3-.6-.6-1.4 0-2 .3-.3.8-.6 1.4-.6 1.4.6 2.8.8 4.5.8 6.8 0 12.1-4.8 12.1-11.3 0-5.3-3.1-9.8-7.6-11.5-4.8-2-9.8-.6-13.8 3.7-3.1 3.4-4.8 7.6-3.9 12.4 1.1 7 8.2 11.8 13.2 12.7 3.7.6 7.6.6 11.3-.3 2.9-.5 5.6-1.8 8.1-3.3 2.3-1.4 4.8-3.4 7.6-3.4H48c4.5 0 8.2.8 10.7 2.8 2.5 2 4.5 4.2 5.6 6.8 2 4.5 2.5 9.2 2.5 14.1 0 5.6-.6 10.1-1.4 13.5-.8 3.4-2.3 6.2-3.7 8.2-3.4 3.9-8.8 5.1-13.8 5.1-2.7 0-5.1 0-7.3-.3v-46.7c-5.9 7.6-13.5 11-22.8 10.7v37.7H7.6v.3h43.3c3.4 0 7.3-.3 11.8-1.1 4.5-.8 8.4-2.3 12.4-4.2 3.9-2 7.3-4.8 9.8-8.2 2.8-3.4 3.9-7.9 3.9-13.2.7-6.3-.5-10.3-2.4-13.6zM20 380.7c.3-.8 1.4-1.1 2.5-.6.8.6 1.4 1.4 1.1 2.3-.3.8-1.4 1.1-2.5.6-.8-.6-1.4-1.7-1.1-2.3zm-4.2-7c1.1 0 1.7 1.1 1.7 1.7-.3.8-1.1 1.4-2.3 1.1s-1.7-1.1-1.7-1.7c.3-.8 1.1-1.4 2.3-1.1zm-2.3 6.2c.6-.6 1.7-.8 2.8-.3 1.1.6 1.7 1.7 1.1 2.3-.3.8-1.4.8-2.5.3-1.1-.3-1.7-1.5-1.4-2.3zm32.4 12.7l-3.1.3h-2v-10.1-.3V349c.9 0 1.6-.1 2.5-.1 3.8 0 8-.3 11.6 1.2 2.3.8 3.9 2.3 5.3 4.2 1.4 1.9 2.3 4.2 2.8 7 .6 2.8.8 6.5.8 10.4 0 2.5-.3 4.8-.6 7.3-.3 2.3-1.1 4.5-2.3 6.5-1.1 2-3.1 3.9-5.3 5.1-2.4.8-5.8 2-9.7 2z"/><path fill="#E5897F" d="M310.6 383.7c.6 2.4.9 4.2.9 6v.9c.6.3 2.2 1.1 4.7 1.2 2.5-.1 4.2-.9 4.8-1.2v-.9c0-1.8.3-3.6.9-6-6.6 2.5-11.3 0-11.3 0z"/><path fill="#D95151" d="M334.2 376.1s-2.3-.3-2.1 2.3c.2-1.1 1.9-1.3 1.8.3-.2 3.5-7.3 1.5-9.9-.2-4.2-3-6.7-3.1-7-3.1s-2.9 0-7.2 2.8c-2.6 1.7-9.9 3.3-9.9-.2 0-1.7 1.6-1.4 1.8-.3.2-2.6-2-2.4-2-2.4s-2.1-.1-2.2 2.7c-.3 4.9 6 7 13.4 5 3.7-1.5 4.2-2.7 6-2.8 1.7.1 2.2 1.4 5.8 3 7.3 2.3 13.6.5 13.6-4.4-.1-2.7-2.1-2.7-2.1-2.7z"/></svg>