<svg xmlns="http://www.w3.org/2000/svg" viewBox="26 325.1 560.1 131"><path fill="#FFF" d="M332.2 339.4l.3-6.6s.6-2.4-4.2-3.5-10.3.3-10.5 2.1c-.6 1.9-.3 7.4-.3 7.4l14.7.6zM336.2 342.3c-2.4-4.2-8.5-4.2-11.7-4.5-3.2 0-9-.6-11.9 3.7-2.6 4.2 2.4 6.9 2.4 6.9l9 .3 9 .3c.3.2 5.6-2.2 3.2-6.7zM323.5 369.4c-2.8.1-4-.7-4.8-1.1-1.6 4.5-7.8 8.2-8.1 19.3-.3 9 5.6 29.4 8.2 29.6h5.8c2.4 0 10.1-20.1 10.3-28.8.6-11.1-5.6-15.6-6.9-20.1-.8.6-1.9 1.1-4.5 1.1z"/><path fill="#FFF" d="M328.4 340.4c-1.3-.8-2.7-1-4-1s-2.7 0-4 .8c-2.7 1.6-3.8 3.5-4 8.5-.3 4 .8 8 1.9 11.5 1 .6 3.3.9 5.4.9 2.4 0 4.6-.4 5.4-.9 1-4 2.6-7.8 2.9-11 .4-5.1-.8-6.9-3.6-8.8zM340.5 416.6v1.9h-33v-1.9h33zM177.8 383.8c-4-15.9-18.5-26.4-34.1-22.5-15.9 4-25.4 16.4-22.5 34.1 2.6 15.9 19 26.2 34.6 22.2 15.7-3.6 25.7-17.9 22-33.8zm-33.3-14c0-2.1 2.1-3.7 4.8-4 2.6 0 4.8 1.6 4.8 3.7s-2.1 3.7-4.8 4c-2.4 0-4.8-1.5-4.8-3.7zm13.5 14.9c-.6 2.1-3.2 3.2-5.8 2.4-2.9-.6-4.8-2.9-4.2-4.8.6-2.1 3.2-3.2 5.8-2.4 2.6.5 4.7 2.9 4.2 4.8zm14.8-2.8c-.6 2.1-2.9 3.2-5.3 2.6-2.6-.6-4.2-2.6-4-4.5.6-2.1 2.9-3.2 5.3-2.6 2.7.6 4.2 2.5 4 4.5zM178.1 364.8v-1.9h32.8v1.9h-8.5l13.3 33.6 10.3-27.5-2.6-6.1h-6.6v-1.9h32.5v1.9h-8.9l13.3 33.6 12.7-33.6h-9v-1.9h17.5v1.9h-6.3l-21.2 57.4h-.8l-19.4-48.4-18 48.4h-.8l-22.8-57.4h-7.5z"/><path fill="#FFF" d="M297.4 325.1v91.5h8.7v1.9h-33v-1.9h8.7v-89.9h-8.7v-1.6h24.3zM351.1 416.6v-51.8h-8.5v-1.9h24.1v13h.3c.3-.8 1-1.9 1.9-3.5.8-1.6 2.1-3.2 3.7-4.8 1.6-1.6 3.7-2.9 6.3-4 2.6-1 5.8-1.9 9.8-1.9 5.8 0 10.1 1.6 13.3 5 3.2 3.2 4.8 7.7 4.8 13.5v36.5h8.7v1.9H383v-1.9h7.9v-41c0-3.7-.8-6.3-2.1-7.9-1.6-1.6-3.5-2.6-6.1-2.6-2.1 0-4 .6-6.1 1.6-1.9 1-3.5 2.4-5 4.5-1.3 2.1-2.6 4.5-3.5 7.4-.8 2.9-1.3 6.3-1.3 10.3v27.8h8.2v1.9h-32.5v-1.9h8.7l-.1-.2zM564.7 413.3h-26.4v-1.6h7.2l-10.4-15.8-11.4 15.8h8v1.6h-16.9v-1.6h6.9l12.7-17.3-15.4-24.2h-5.3v-1.3h27v1.3h-6.3l8.9 14.5 10.6-14.5h-7.1v-1.3h14.7v1.3h-5.7L544.1 386l16.4 25.7h4.2M481.5 362.9c-1.3-1.3-3.2-1.9-5.6-1.9-2.9 0-5 .6-6.9 1.6-1.9 1-3.7 2.4-5.8 4.5-2.1-1.6-4.5-2.9-7.1-4.2-2.9-1.3-6.1-1.9-10.1-1.9s-7.4.6-10.5 1.6c-3.2 1-5.8 2.4-7.9 4.2s-3.7 4-5 6.3c-1 2.4-1.9 5-1.9 7.7 0 1.9.3 3.5.8 5 .6 1.3 1.3 2.6 2.1 3.7.8 1 1.6 2.1 2.6 2.9s1.9 1.6 2.6 2.1c-2.6 1.6-4.8 2.9-6.3 4.8-1.6 1.6-2.9 3.2-3.5 4.8-.8 1.6-1.3 2.9-1.6 4-.3 1-.3 1.9-.3 2.4 0 2.6.6 5 1.9 6.6 1.3 1.9 2.9 3.2 4.8 4.2s4 1.9 6.1 2.1c2.1.6 4.2.6 5.8.6l16.2.3c1.3 0 2.6.3 4.2.6s2.9 1 4.2 1.9c1.3 1 2.4 2.1 3.2 3.7.8 1.6 1.3 3.7 1.3 6.3 0 2.6-.6 5-1.6 7.1-1 2.1-2.4 4-4 5.6-1.6 1.6-3.7 2.6-5.8 3.7-2.1.8-4.5 1.3-7.1 1.3-3.2 0-6.1-.6-7.9-1.6-1.6-.8-2.6-1.6-3.7-2.6 3.7-1.6 6.3-5.3 6.3-9.8 0-6.3-4.5-11.7-10.5-11.7-4.8 0-8.5 2.1-10.3 6.1-.8 1.6-1.3 3.5-1.3 5.6 0 1.3.3 2.6.8 4.5.6 1.9 1.6 3.5 3.5 5.3 1.9 1.6 4.2 3.2 7.4 4.2 3.2 1.3 7.7 1.9 13 1.9 4.8 0 9.2-.8 13-2.4 3.7-1.6 6.9-3.7 9.8-6.1 2.6-2.4 4.8-5.3 6.1-8.5s2.1-6.6 2.1-9.8c0-4-.8-7.4-2.1-9.8-1.3-2.6-3.2-4.8-5.6-6.3-2.1-1.6-4.8-2.6-7.9-3.2-2.9-.6-6.1-1-9.5-1h-14.3c-2.9 0-5.3-.6-6.9-1.6-1.9-1-2.6-2.6-2.6-4.8 0-1 .3-2.1.6-3.2.6-1 1.9-2.6 4.5-4.2 1.9.8 4 1.3 6.6 2.1 2.6.8 5.8 1 9.2 1 4.2 0 7.9-.6 10.8-1.6 2.9-1 5.3-2.4 7.1-4.2 1.9-1.9 3.2-3.7 4-5.8.8-2.1 1.3-4.2 1.3-6.3 0-3.5-.6-6.3-1.9-8.2-1.3-1.9-2.4-3.5-3.5-4.5 1.9-1.3 2.9-2.1 3.7-2.4.8-.3 1.3-.6 1.9-.6 1 0 1.6.3 1.6.8.3.6.3 1.6.6 2.6 0 .3.3.8.3 1.3s.3 1 .8 1.6c.3.6 1 .8 1.6 1.3.8.3 1.6.6 2.9.6 1.9 0 3.2-.6 4.2-1.6s1.6-2.4 1.6-4c-.2-1.8-.8-3.3-2.1-4.7zM435.8 437c.3-.8 1.3-1 2.1-.8 1 .3 1.6 1.3 1.3 1.9-.3.8-1.3 1-2.1.8-1.1-.3-1.6-1.1-1.3-1.9zm-6.7-5c0-.8 1-1.3 2.1-1.3 1 0 1.9.8 1.6 1.6 0 .8-1 1.3-2.1 1.3-1 0-1.8-.9-1.6-1.6zm4.2 6.3c-.3.8-1.3 1-2.4.6-1-.6-1.6-1.3-1.3-2.1.3-.8 1.3-1 2.4-.6 1.1.5 1.6 1.6 1.3 2.1zm21.2-49.4c-.6 2.1-1 4-2.1 5-.8 1-1.9 1.9-3.2 2.4-1.3.3-2.6.6-4.2.6s-2.9-.3-4.2-.6c-1.3-.3-2.4-1-3.2-2.4-.8-1.3-1.6-3.2-2.1-5.6-.5-2.4-.8-5.6-.8-9.8 0-2.1 0-4 .3-5.8.3-1.9.8-3.7 1.6-5 .8-1.6 1.9-2.6 3.2-3.5 1.3-.8 3.2-1.3 5.3-1.3 2.4 0 4.2.6 5.6 1.3s2.4 2.1 2.9 3.7c.8 1.6 1 3.5 1.3 5.6.3 2.1.3 4.5.3 6.9.1 3.4-.1 6.3-.7 8.5z"/><path fill="#FFF" d="M539.3 344.3c-25.8 0-46.8 20.9-46.8 46.8 0 25.8 20.9 46.8 46.8 46.8 25.8 0 46.8-20.9 46.8-46.8s-21.1-46.8-46.8-46.8zm1.5 91.3c-24.6 0-44.5-19.9-44.5-44.5s19.9-44.5 44.5-44.5 44.5 19.9 44.5 44.5-19.9 44.5-44.5 44.5zM107.5 381.9c-1.9-2.9-4.5-5.6-7.5-7.5-2.9-1.9-6.4-3.2-10.1-4-3.7-.8-7.2-1.3-10.7-1.6v-.6c2.2-.3 4.5-.8 7.7-1.6 2.9-.8 5.8-2.2 8.5-3.7 2.6-1.6 5-3.7 7.2-6.4 1.9-2.6 2.9-5.6 2.9-9.2 0-4.2-1-7.7-2.9-10.4-1.9-2.6-4.5-5-7.7-6.6s-6.4-2.9-10.1-3.5c-3.7-.8-7.2-1-10.7-1s-6.4.3-10.1.3H33.3v1.6h9.5v14.9c.3 0 .6.3 1 .3 9.1 2.4 14.3 10.4 12.5 19.3-1 5.3-3.7 9.8-8.5 12.5-4 2.2-8.2 2.9-12.5.8-1-.6-1.9-1.3-2.4-2.2-.3-.6-.6-1.3 0-1.9.3-.3.8-.6 1.3-.6 1.3.6 2.6.8 4.2.8 6.4 0 11.4-4.5 11.4-10.7 0-5-2.9-9.2-7.2-10.8-4.5-1.9-9.2-.6-13 3.5-2.9 3.2-4.5 7.2-3.7 11.7 1 6.6 7.7 11.1 12.5 12 3.5.6 7.2.6 10.7-.3 2.7-.5 5.3-1.7 7.6-3.1 2.2-1.3 4.5-3.2 7.2-3.2h7.2c4.2 0 7.7.8 10.1 2.6s4.2 4 5.3 6.4c1.9 4.2 2.4 8.7 2.4 13.3 0 5.3-.6 9.5-1.3 12.7s-2.2 5.8-3.5 7.7c-3.2 3.7-8.3 4.8-13 4.8-2.5 0-4.8 0-6.9-.3v-54.1c-5.6 7.2-12.7 13.4-21.5 13.1v41.6h-9.6v1.3h40.8c3.2 0 6.9-.3 11.1-1 4.2-.8 7.9-2.2 11.7-4 3.7-1.9 6.9-4.5 9.2-7.7 2.6-3.2 3.7-7.5 3.7-12.5.8-5.8-.3-9.6-2.1-12.7zM44.9 358c.3-.8 1.3-1 2.4-.6.8.6 1.3 1.3 1 2.2-.3.8-1.3 1-2.4.6-.8-.6-1.3-1.7-1-2.2zm-4-6.6c1 0 1.6 1 1.6 1.6-.3.8-1 1.3-2.2 1-1.1-.3-1.6-1-1.6-1.6.3-.7 1.1-1.3 2.2-1zm-2.2 5.8c.6-.6 1.6-.8 2.6-.3 1 .6 1.6 1.6 1 2.2-.3.8-1.3.8-2.4.3-.9-.3-1.5-1.4-1.2-2.2zm30.6 12l-2.9.3h-1.9V360v-.3-31.6c.8 0 1.5-.1 2.4-.1 3.6 0 7.5-.3 10.9 1.1 2.2.8 3.7 2.2 5 4s2.2 4 2.6 6.6c.6 2.6.8 6.1.8 9.8 0 2.4-.3 4.5-.6 6.9-.3 2.2-1 4.2-2.2 6.1-1 1.9-2.9 3.7-5 4.8-2.2.8-5.4 1.9-9.1 1.9zM318.2 361c.6 2.3.8 4 .8 5.6v.8c.6.3 2.1 1 4.4 1.1 2.4-.1 4-.8 4.5-1.1v-.8c0-1.7.3-3.4.8-5.6-6.1 2.3-10.5 0-10.5 0zM340.4 353.8s-2.2-.3-2 2.2c.2-1 1.8-1.2 1.7.3-.2 3.3-6.9 1.4-9.3-.2-4-2.8-6.3-2.9-6.6-2.9-.3 0-2.7 0-6.8 2.6-2.4 1.6-9.3 3.1-9.3-.2 0-1.6 1.5-1.3 1.7-.3.2-2.4-1.9-2.3-1.9-2.3s-2-.1-2.1 2.5c-.3 4.6 5.6 6.6 12.6 4.7 3.5-1.4 4-2.5 5.6-2.6 1.6.1 2.1 1.3 5.5 2.8 6.9 2.2 12.8.5 12.8-4.1 0-2.5-1.9-2.5-1.9-2.5z"/></svg>