<?xml version="1.0" encoding="utf-8"?>
<!-- Generator: Adobe Illustrator 17.1.0, SVG Export Plug-In . SVG Version: 6.00 Build 0)  -->
<!DOCTYPE svg PUBLIC "-//W3C//DTD SVG 1.1//EN" "http://www.w3.org/Graphics/SVG/1.1/DTD/svg11.dtd">
<svg version="1.1" xmlns="http://www.w3.org/2000/svg" xmlns:xlink="http://www.w3.org/1999/xlink" x="0px" y="0px"
	 viewBox="305.8 322.7 39.9 97.9" enable-background="new 305.8 322.7 39.9 97.9" xml:space="preserve">
<g id="programmer" display="none">
	<g id="programer" display="inline">
		<g>
			<path fill="#006875" d="M35.1,462.4h-0.3l-15.3-7.2c-0.3,0-0.7-0.7-0.7-0.9s0.3-0.7,0.7-0.9l15.3-7.2h0.3c0.7,0,0.9,0.7,0.9,0.9
				c0,0.3-0.3,0.7-0.7,0.9l-13.5,6.3l13.5,6.7c0.3,0,0.7,0.7,0.7,0.9C35.8,462.1,35.4,462.4,35.1,462.4z"/>
			<path fill="#006875" d="M54.6,465.9c-3.5,0-5.8-1.4-7.8-4.4v9.8h4.4c0.9,0,1.1,0.3,1.1,0.9c0,0.7-0.3,0.9-1.1,0.9h-8.5
				c-0.9,0-1.1-0.3-1.1-0.9c0-0.7,0.3-0.9,1.1-0.9H45v-22.8h-2.3c-0.9,0-1.1-0.3-1.1-0.9s0.3-0.9,1.1-0.9h4v3.5
				c2.3-2.8,4.6-4.4,7.8-4.4c5.5,0,9.5,4.6,9.5,9.8C64.3,461.3,59.9,465.9,54.6,465.9z M54.5,448.2c-4.4,0-7.8,3.8-7.8,7.8
				c0,4,3.5,8.1,7.8,8.1s7.8-3.8,7.8-7.8C62.3,452.1,59.1,448.2,54.5,448.2z"/>
			<path fill="#006875" d="M89.4,450.3c-0.3,0-0.3,0-0.7-0.3c-1.1-0.9-2.1-1.4-2.8-1.4c-2.1,0-3.5,0.9-8.4,5.5v9.5h7.9
				c0.9,0,1.1,0.3,1.1,0.9c0,0.5-0.7,0.9-1.1,0.9H71.6c-0.9,0-1.1-0.3-1.1-0.9c0-0.5,0.7-0.9,1.1-0.9h4.4v-14.8h-3.5
				c-0.9,0-1.1-0.3-1.1-0.9c0-0.5,0.7-0.9,1.1-0.9h5.2v4.4c4-3.8,6.1-4.9,8.4-4.9c1.1,0,2.3,0.3,3.5,1.4c0.9,0.7,0.9,0.9,0.9,1.4
				C90.3,449.8,90,450.3,89.4,450.3z"/>
			<path fill="#006875" d="M105.9,465.9c-5.5,0-9.8-4.4-9.8-9.8s4.4-9.8,9.8-9.8s9.8,4.4,9.8,9.8C116,461.7,111.5,465.9,105.9,465.9
				z M105.9,448.2c-4.6,0-8.1,3.5-8.1,7.8c0,4.3,3.8,8.1,8.1,8.1c4.6,0,8.1-3.5,8.1-7.8C114.3,451.7,110.5,448.2,105.9,448.2z"/>
			<path fill="#006875" d="M142.6,448.9h-2.3v17.7c0,1.7-0.7,3.2-1.7,4.6c-1.4,1.7-3.2,2.3-5.2,2.3h-4.9c-0.9,0-1.1-0.3-1.1-0.9
				s0.3-0.9,1.1-0.9h4.6c2.8,0,5.2-2.3,5.2-5.5v-4.6c-2.1,2.8-4.4,4.4-7.5,4.4c-4.9,0-9-4.6-9-9.8c0-5.2,4-9.8,9-9.8
				c3.2,0,5.5,1.4,7.5,4.4v-3.8h4c0.9,0,1.1,0.3,1.1,0.9C143.8,448.6,143.1,448.9,142.6,448.9z M131,448.2c-4,0-7.2,3.8-7.2,7.8
				c0,4,3.2,7.8,7.2,7.8c4,0,7.2-3.8,7.2-7.8C138.2,452.1,135.1,448.2,131,448.2z"/>
			<path fill="#006875" d="M168.1,450.3c-0.3,0-0.3,0-0.7-0.3c-1.1-0.9-2.1-1.4-2.8-1.4c-2.1,0-3.5,0.9-8.4,5.5v9.5h7.8
				c0.9,0,1.1,0.3,1.1,0.9c0,0.5-0.7,0.9-1.1,0.9H150c-0.9,0-1.1-0.3-1.1-0.9c0-0.5,0.7-0.9,1.1-0.9h4.4v-14.8h-3.2
				c-0.9,0-1.1-0.3-1.1-0.9c0-0.5,0.7-0.9,1.1-0.9h4.9v4.4c4-3.8,6.1-4.9,8.4-4.9c1.1,0,2.3,0.3,3.5,1.4c0.9,0.7,0.9,0.9,0.9,1.4
				C168.9,449.8,168.6,450.3,168.1,450.3z"/>
			<path fill="#006875" d="M194.1,465.4h-4v-2.8c-2.6,2.6-5.2,3.8-8.4,3.8c-4,0-6.9-2.3-6.9-5.5c0-3.8,3.8-6.3,9.3-6.3
				c2.1,0,3.5,0.3,6.1,0.9v-3.2c0-2.1-2.3-3.5-5.5-3.5c-1.4,0-2.8,0.3-6.1,1.4c-0.3,0-0.7,0-0.7,0c-0.7,0-0.9-0.3-0.9-0.9
				c0-0.7,0.3-0.9,0.9-0.9c2.3-0.9,5.2-1.4,6.9-1.4c4,0,6.9,2.3,6.9,5.5V464h2.3c0.9,0,1.1,0.3,1.1,0.9
				C195.2,465.1,194.6,465.4,194.1,465.4z M189.8,456.4c-1.4-0.3-3.8-0.7-5.5-0.7c-4.6,0-7.8,1.7-7.8,4.6c0,2.3,2.1,3.8,4.9,3.8
				c3.2,0,5.5-1.1,8.4-3.8L189.8,456.4L189.8,456.4z"/>
			<path fill="#006875" d="M222.4,465.4h-3.2v-13.9c0-1.7-1.4-3.2-2.8-3.2c-1.4,0-2.8,1.1-4.6,3.5v11.5h1.4c0.9,0,1.1,0.3,1.1,0.9
				c0,0.7-0.3,0.9-1.1,0.9h-3.3v-13.5c0-1.7-1.4-3.2-2.8-3.2c-1.4,0-2.8,1.1-4.6,3.5v11.5h1.4c0.9,0,1.1,0.3,1.1,0.9
				c0,0.7-0.7,0.9-1.1,0.9h-4.6c-0.9,0-1.1-0.3-1.1-0.9c0-0.7,0.3-0.9,1.1-0.9h1.4v-14.9h-1.4c-0.9,0-1.1-0.3-1.1-0.9
				c0-0.5,0.3-0.9,1.1-0.9h3.2v2.3c1.4-2.1,2.8-2.8,4.6-2.8s3.2,0.9,4.4,3.2c1.7-2.3,3.2-3.2,4.9-3.2c2.6,0,4.6,2.1,4.6,4.6v12.5
				h1.4c0.9,0,1.1,0.3,1.1,0.9C223.6,465.1,223.2,465.4,222.4,465.4z"/>
			<path fill="#006875" d="M248.7,465.4h-3.2v-13.9c0-1.7-1.4-3.2-2.8-3.2c-1.4,0-2.8,1.1-4.6,3.5v11.5h1.4c0.9,0,1.1,0.3,1.1,0.9
				c0,0.7-0.3,0.9-1.1,0.9h-3.2v-13.5c0-1.7-1.4-3.2-2.8-3.2c-1.4,0-2.8,1.1-4.6,3.5v11.5h1.4c0.9,0,1.1,0.3,1.1,0.9
				c0,0.7-0.7,0.9-1.1,0.9h-4.6c-0.9,0-1.1-0.3-1.1-0.9c0-0.7,0.3-0.9,1.1-0.9h1.4v-14.9h-1.4c-0.9,0-1.1-0.3-1.1-0.9
				c0-0.5,0.3-0.9,1.1-0.9h3.2v2.3c1.4-2.1,2.8-2.8,4.6-2.8s3.2,0.9,4.4,3.2c1.7-2.3,3.2-3.2,4.9-3.2c2.6,0,4.6,2.1,4.6,4.6v12.5
				h1.4c0.9,0,1.1,0.3,1.1,0.9C249.8,465.1,249.6,465.4,248.7,465.4z"/>
			<path fill="#006875" d="M254.7,456.8c0.7,4.6,4,7.5,9,7.5c2.6,0,5.8-0.9,7.5-2.3c0.3-0.3,0.7-0.3,0.7-0.3c0.7,0,0.9,0.3,0.9,0.9
				c0,1.4-5.2,3.5-9.3,3.5c-5.8,0-10.7-4.6-10.7-10.1c0-5.2,4.4-9.3,9.8-9.3c4.4,0,7.8,2.3,9.3,5.8c0.7,1.4,0.9,2.3,0.9,4.4h-18
				V456.8z M262.8,448.2c-4.4,0-7.5,2.6-8.1,6.7h16.5C270.3,451,267.2,448.2,262.8,448.2z"/>
			<path fill="#006875" d="M299.1,450.3c-0.3,0-0.3,0-0.7-0.3c-1.1-0.9-2.1-1.4-2.8-1.4c-2.1,0-3.5,0.9-8.4,5.5v9.5h7.8
				c0.9,0,1.1,0.3,1.1,0.9c0,0.5-0.7,0.9-1.1,0.9H281c-0.9,0-1.1-0.3-1.1-0.9c0-0.5,0.7-0.9,1.1-0.9h4.4v-14.8h-3.2
				c-0.9,0-1.1-0.3-1.1-0.9c0-0.5,0.7-0.9,1.1-0.9h5.2v4.4c4-3.8,6.1-4.9,8.4-4.9c1.1,0,2.3,0.3,3.5,1.4c0.9,0.7,0.9,0.9,0.9,1.4
				C299.8,449.8,299.5,450.3,299.1,450.3z"/>
			<path fill="#006875" d="M323.5,437.6L309.3,468c-0.3,0.7-0.7,0.9-0.9,0.9c-0.7,0-0.9-0.3-0.9-0.9c0-0.3,0-0.3,0.3-0.7l14.2-30.4
				c0.3-0.7,0.7-0.9,0.9-0.9c0.7,0,0.9,0.3,0.9,0.9C323.8,437.1,323.8,437.4,323.5,437.6z"/>
			<path fill="#006875" d="M349.8,455l-15.3,7.2h-0.3c-0.7,0-0.9-0.7-0.9-0.9c0-0.2,0.3-0.7,0.7-0.9l13.5-6.7l-13.5-6.7
				c-0.3,0-0.7-0.7-0.7-0.9c0-0.7,0.7-0.9,0.9-0.9h0.3l15.3,7.2c0.3,0,0.7,0.7,0.7,0.9C350.4,454.7,350.1,455,349.8,455z"/>
		</g>
	</g>
</g>
<g id="Layer_11" display="none">
	<circle display="inline" fill="#D2D98D" cx="561.4" cy="390.6" r="50.3"/>
	<g id="x_2_" display="inline">
		<g>
			<polygon fill="#D95151" points="588.7,414.9 559.9,414.9 559.9,413.2 567.8,413.2 556.4,395.9 543.9,413.2 552.7,413.2 
				552.7,414.9 534.2,414.9 534.2,413.2 541.7,413.2 555.6,394.3 538.8,367.8 533,367.8 533,366.4 562.5,366.4 562.5,367.8 
				555.6,367.8 565.3,383.7 576.9,367.8 569.2,367.8 569.2,366.4 585.2,366.4 585.2,367.8 579,367.8 566.2,385.1 584.1,413.2 
				588.7,413.2 			"/>
			<path fill="#E5897F" d="M561,339.5c-28.2,0-51.1,22.8-51.1,51.1c0,28.2,22.8,51.1,51.1,51.1c28.2,0,51.1-22.8,51.1-51.1
				C612.1,362.3,589.1,339.5,561,339.5z M562.6,439.3c-26.9,0-48.6-21.7-48.6-48.6c0-26.9,21.7-48.6,48.6-48.6
				c26.9,0,48.6,21.7,48.6,48.6C611.2,417.5,589.5,439.3,562.6,439.3z"/>
		</g>
	</g>
</g>
<g id="Layer_12" display="none">
</g>
<g id="x2" display="none">
	<path display="inline" fill="#D2D98D" d="M590.6,349.7l-60.2,80.5c8.6,6.7,19.3,10.8,31.1,10.8c27.8,0,50.3-22.5,50.3-50.3
		C611.7,373.7,603.4,358.8,590.6,349.7z"/>
	<polygon display="inline" fill="#D95151" points="566.2,385.1 579,367.8 585.2,367.8 585.2,366.4 578.1,366.4 573.9,371.9 
		565.3,383.7 565.3,383.5 541.8,414.9 552.7,414.9 552.7,413.2 543.9,413.2 556.4,395.9 567.8,413.2 559.9,413.2 559.9,414.9 
		588.7,414.9 588.7,413.2 584.1,413.2 	"/>
	<path display="inline" fill="#E5897F" d="M590.9,349.2l-0.9,1.2c12.8,8.7,21.3,23.5,21.3,40.2c0,26.9-21.7,48.6-48.6,48.6
		c-11.7,0-22.4-4.1-30.8-11l-2.1,2.8c8.6,6.7,19.5,10.7,31.3,10.7c28.2,0,51.1-22.8,51.1-51.1C612.1,373.6,603.7,358.5,590.9,349.2z
		"/>
</g>
<g id="x1" display="none">
	<path display="inline" fill="#D2D98D" d="M530.5,430.3l60.1-80.6c-8.2-5.9-18.3-9.4-29.2-9.4c-27.8,0-50.3,22.5-50.3,50.3
		C511.1,406.8,518.7,421.1,530.5,430.3z"/>
	<g display="inline">
		<path fill="#E5897F" d="M529.8,431.2l2.1-2.8c-10.9-8.9-17.9-22.5-17.9-37.7c0-26.9,21.7-48.6,48.6-48.6c10.2,0,19.6,3.1,27.4,8.5
			l0.9-1.2c-8.4-6.1-18.8-9.8-30-9.8c-28.2,0-51.1,22.8-51.1,51.1C509.8,407.1,517.7,421.8,529.8,431.2z"/>
	</g>
	<g display="inline">
		<polygon fill="#D95151" points="555.6,394.3 541.7,413.2 534.2,413.2 534.2,414.9 542,414.9 565.3,383.6 555.6,367.8 562.5,367.8 
			562.5,366.4 533,366.4 533,367.8 538.8,367.8 		"/>
		<polygon fill="#D95151" points="567.4,380.9 578.2,366.4 569.2,366.4 569.2,367.8 576.9,367.8 		"/>
	</g>
</g>
<g id="g_1_" display="none">
	<g id="g" display="inline">
		<path fill="#D95151" d="M497.8,359.8c-1.4-1.4-3.5-2.1-6.1-2.1c-3.2,0-5.5,0.7-7.5,1.7c-2.1,1.1-4,2.6-6.3,4.9
			c-2.3-1.7-4.9-3.2-7.8-4.6c-3.2-1.4-6.7-2.1-11-2.1c-4.4,0-8.1,0.7-11.5,1.7c-3.5,1.1-6.3,2.6-8.6,4.6c-2.3,2-4,4.4-5.5,6.9
			c-1.1,2.6-2.1,5.5-2.1,8.4c0,2.1,0.3,3.8,0.9,5.5c0.7,1.4,1.4,2.8,2.3,4c0.9,1.1,1.7,2.3,2.8,3.2s2.1,1.7,2.8,2.3
			c-2.8,1.7-5.2,3.2-6.9,5.2c-1.7,1.7-3.2,3.5-3.8,5.2c-0.9,1.7-1.4,3.2-1.7,4.4c-0.3,1.1-0.3,2.1-0.3,2.6c0,2.8,0.7,5.5,2.1,7.2
			c1.4,2.1,3.2,3.5,5.2,4.6c2.1,1.1,4.4,2.1,6.7,2.3c2.3,0.7,4.6,0.7,6.3,0.7l17.7,0.3c1.4,0,2.8,0.3,4.6,0.7
			c1.7,0.3,3.2,1.1,4.6,2.1c1.4,1.1,2.6,2.3,3.5,4c0.9,1.7,1.4,4,1.4,6.9s-0.7,5.5-1.7,7.8s-2.6,4.4-4.4,6.1c-1.7,1.7-4,2.8-6.3,4
			c-2.3,0.9-4.9,1.4-7.8,1.4c-3.5,0-6.7-0.7-8.6-1.7c-1.7-0.9-2.8-1.7-4-2.8c4-1.7,6.9-5.8,6.9-10.7c0-6.9-4.9-12.8-11.5-12.8
			c-5.2,0-9.3,2.3-11.3,6.7c-0.9,1.7-1.4,3.8-1.4,6.1c0,1.4,0.3,2.8,0.9,4.9c0.7,2.1,1.7,3.8,3.8,5.8c2.1,1.7,4.6,3.5,8.1,4.6
			c3.5,1.4,8.4,2.1,14.2,2.1c5.2,0,10.1-0.9,14.2-2.6c4-1.7,7.5-4,10.7-6.7c2.8-2.6,5.2-5.8,6.7-9.3c1.4-3.5,2.3-7.2,2.3-10.7
			c0-4.4-0.9-8.1-2.3-10.7c-1.4-2.8-3.5-5.2-6.1-6.9c-2.3-1.7-5.2-2.8-8.6-3.5c-3.2-0.7-6.7-1.1-10.4-1.1h-15.6
			c-3.2,0-5.8-0.7-7.5-1.7c-2.1-1.1-2.8-2.8-2.8-5.2c0-1.1,0.3-2.3,0.7-3.5c0.7-1.1,2.1-2.8,4.9-4.6c2.1,0.9,4.4,1.4,7.2,2.3
			c2.8,0.9,6.3,1.1,10.1,1.1c4.6,0,8.6-0.7,11.8-1.7c3.2-1.1,5.8-2.6,7.8-4.6c2.1-2.1,3.5-4,4.4-6.3c0.9-2.3,1.4-4.6,1.4-6.9
			c0-3.8-0.7-6.9-2.1-9c-1.4-2.1-2.6-3.8-3.8-4.9c2.1-1.4,3.2-2.3,4-2.6c0.9-0.3,1.4-0.7,2.1-0.7c1.1,0,1.7,0.3,1.7,0.9
			c0.3,0.7,0.3,1.7,0.7,2.8c0,0.3,0.3,0.9,0.3,1.4s0.3,1.1,0.9,1.7c0.3,0.7,1.1,0.9,1.7,1.4c0.9,0.3,1.7,0.7,3.2,0.7
			c2.1,0,3.5-0.7,4.6-1.7c1.1-1.1,1.7-2.6,1.7-4.4C499.9,363,499.2,361.4,497.8,359.8z M447.9,440.8c0.3-0.9,1.4-1.1,2.3-0.9
			c1.1,0.3,1.7,1.4,1.4,2.1c-0.3,0.9-1.4,1.1-2.3,0.9C448.1,442.5,447.6,441.7,447.9,440.8z M440.6,435.3c0-0.9,1.1-1.4,2.3-1.4
			c1.1,0,2.1,0.9,1.7,1.7c0,0.9-1.1,1.4-2.3,1.4C441.2,437.1,440.3,436.1,440.6,435.3z M445.2,442.2c-0.3,0.9-1.4,1.1-2.6,0.7
			c-1.1-0.7-1.7-1.4-1.4-2.3c0.3-0.9,1.4-1.1,2.6-0.7C444.9,440.5,445.5,441.7,445.2,442.2L445.2,442.2z M468.3,388.2
			c-0.7,2.3-1.1,4.4-2.3,5.5c-0.9,1.1-2.1,2.1-3.5,2.6c-1.4,0.3-2.8,0.7-4.6,0.7s-3.2-0.3-4.6-0.7c-1.4-0.3-2.6-1.1-3.5-2.6
			c-0.9-1.4-1.7-3.5-2.3-6.1s-0.9-6.1-0.9-10.7c0-2.3,0-4.4,0.3-6.3c0.3-2.1,0.9-4,1.7-5.5c0.9-1.7,2.1-2.8,3.5-3.8
			c1.4-0.9,3.5-1.4,5.8-1.4c2.6,0,4.6,0.7,6.1,1.4c1.5,0.8,2.6,2.3,3.2,4c0.9,1.7,1.1,3.8,1.4,6.1s0.3,4.9,0.3,7.5
			C469.2,382.7,469,385.8,468.3,388.2z"/>
	</g>
</g>
<g id="n_1_" display="none">
	<g id="n" display="inline">
		<path fill="#D95151" d="M355.3,418.5v-56.6H346v-2.1h26.3V374h0.3c0.3-0.9,1.1-2.1,2.1-3.8c0.9-1.7,2.3-3.5,4-5.2
			c1.7-1.7,4-3.2,6.9-4.4c2.8-1.1,6.3-2.1,10.7-2.1c6.3,0,11,1.7,14.5,5.5c3.5,3.5,5.2,8.4,5.2,14.8v39.9h9.5v2.1h-35.5v-2.1h8.6
			v-44.8c0-4-0.9-6.9-2.3-8.6c-1.7-1.7-3.8-2.8-6.7-2.8c-2.3,0-4.4,0.7-6.7,1.7c-2.1,1.1-3.8,2.6-5.5,4.9c-1.4,2.3-2.8,4.9-3.8,8.1
			c-0.9,3.2-1.4,6.9-1.4,11.3v30.4h9v2.1h-35.5v-2.1h9.5L355.3,418.5L355.3,418.5z"/>
	</g>
</g>
<g id="Layer_14" display="none">
	<path display="inline" fill="#D95151" d="M343.8,418.5v2.1h-36.1v-2.1H343.8z"/>
</g>
<g id="i1">
	<path id="Hat2" fill="#E5897F" d="M334.7,334.2l0.3-7.2c0,0,0.7-2.6-4.6-3.8c-5.2-1.2-11.3,0.3-11.5,2.3c-0.7,2.1-0.3,8.1-0.3,8.1
		L334.7,334.2z"/>
	<path id="Hat1" fill="#D95151" d="M339.1,337.3c-2.6-4.6-9.3-4.6-12.8-4.9c-3.5,0-9.8-0.7-13,4c-2.8,4.6,2.6,7.5,2.6,7.5l9.8,0.3
		l9.8,0.3C335.9,344.9,341.7,342.2,339.1,337.3z"/>
	<path fill="#E5897F" d="M325.2,366.9c-3.1,0.1-4.4-0.8-5.2-1.2c-1.7,4.9-8.5,9-8.9,21.1c-0.3,9.8,6.1,32.1,9,32.3
		c2.1,0,3.2,0,3.2,0l0,0c0,0,1.1,0,3.2,0c2.6,0,11-22,11.3-31.5c0.7-12.1-6.1-17-7.5-22C329.2,366.4,328,366.9,325.2,366.9z"/>
	<path fill="#E5897F" d="M319.4,357.8c0.7,2.5,0.9,4.4,0.9,6.1c0,0.3,0,0.7,0,0.9c0.7,0.3,2.3,1.1,4.8,1.2c2.6-0.1,4.4-0.9,4.9-1.2
		c0-0.3,0-0.7,0-0.9c0-1.9,0.3-3.7,0.9-6.1C324.2,360.3,319.4,357.8,319.4,357.8z"/>
	<path fill="#E5897F" d="M330.5,335.2c-1.4-0.9-3-1.1-4.4-1.1c-1.4,0-3,0-4.4,0.9c-3,1.7-4.2,3.8-4.4,9.3c-0.3,4.4,0.9,8.7,2.1,12.6
		c1.1,0.7,3.6,1,5.9,1c2.6,0,5-0.4,5.9-1c1.1-4.4,2.8-8.5,3.2-12C334.9,339.3,333.6,337.3,330.5,335.2z"/>
</g>
<g id="i2" display="none">
	<path id="moustache" display="inline" fill="#D95151" d="M343.6,349.9c0,0-2.4-0.3-2.2,2.4c0.2-1.1,2-1.3,1.9,0.3
		c-0.2,3.6-7.5,1.5-10.2-0.2c-4.4-3.1-6.9-3.2-7.2-3.2c-0.3,0-3,0-7.4,2.8c-2.6,1.7-10.2,3.4-10.2-0.2c0-1.7,1.6-1.4,1.9-0.3
		c0.2-2.6-2.1-2.5-2.1-2.5s-2.2-0.1-2.3,2.7c-0.3,5,6.1,7.2,13.8,5.1c3.8-1.5,4.4-2.7,6.1-2.8c1.7,0.1,2.3,1.4,6,3.1
		c7.5,2.4,14,0.5,14-4.5C345.7,349.9,343.6,349.9,343.6,349.9z"/>
</g>
<g id="L" display="none">
	<g id="l" display="inline">
		<path fill="#D95151" d="M296.7,318.5v100h9.5v2.1h-36.1v-2.1h9.5v-98.2h-9.5v-1.7H296.7z"/>
	</g>
</g>
<g id="w_1_" display="none">
	<g id="w" display="inline">
		<path fill="#D95151" d="M166.3,361.9v-2.1h35.8v2.1h-9.3l14.5,36.7l11.3-30l-2.8-6.7h-7.2v-2.1h35.5v2.1h-9.7l14.5,36.7l13.9-36.7
			H253v-2.1h19.1v2.1h-6.9L242,424.6h-0.9L220,371.7l-19.7,52.9h-0.9l-24.9-62.7H166.3z"/>
	</g>
</g>
<g id="o_1_" display="none">
	<g id="o" display="inline">
		<path fill="#D95151" d="M166,382.7c-4.4-17.4-20.2-28.8-37.3-24.6c-17.4,4.4-27.8,17.9-24.6,37.3c2.8,17.4,20.8,28.6,37.8,24.3
			C159.1,415.7,170,400,166,382.7z M129.6,367.4c0-2.3,2.3-4,5.2-4.4c2.8,0,5.2,1.7,5.2,4l0,0c0,2.3-2.3,4-5.2,4.4
			C132.2,371.4,129.6,369.8,129.6,367.4z M144.3,383.7c-0.7,2.3-3.5,3.5-6.3,2.6c-3.2-0.7-5.2-3.2-4.6-5.2c0.7-2.3,3.5-3.5,6.3-2.6
			C142.6,379,144.9,381.6,144.3,383.7z M160.5,380.6c-0.7,2.3-3.2,3.5-5.8,2.8c-2.8-0.7-4.6-2.8-4.4-4.9c0.7-2.3,3.2-3.5,5.8-2.8
			C159.1,376.3,160.7,378.4,160.5,380.6z"/>
	</g>
</g>
<g id="B_1_" display="none">
	<g id="B" display="inline">
		<path fill="#D95151" d="M88.9,380.7c-2.1-3.2-4.9-6.1-8.1-8.1c-3.2-2-7-3.5-11-4.4s-7.8-1.4-11.6-1.7v-0.7
			c2.4-0.3,4.9-0.9,8.4-1.7c3.2-0.9,6.3-2.4,9.3-4c2.8-1.7,5.5-4,7.8-7c2.1-2.8,3.2-6.1,3.2-10.1c0-4.6-1.1-8.4-3.2-11.3
			s-4.9-5.5-8.4-7.2c-3.5-1.7-7-3.2-11-3.8c-4-0.9-7.8-1.1-11.6-1.1s-7,0-11,0c0,0-33.3,0-33.5,0c0,0,0,1.7,0,2.1c3.5,0,7,0,10.4,0
			c0,9.3,0,7,0,16.3c0.3,0,0.7,0.3,1.1,0.3c9.8,2.6,15.6,11.3,13.5,21.1c-1.1,5.8-4,10.7-9.3,13.5c-4.4,2.4-9,3.2-13.5,0.9
			c-1.1-0.7-2.1-1.4-2.6-2.4c-0.3-0.7-0.7-1.4,0-2.1c0.3-0.3,0.9-0.7,1.4-0.7c1.4,0.7,2.8,0.9,4.6,0.9c7,0,12.5-4.9,12.5-11.6
			c0-5.5-3.2-10.1-7.8-11.8c-4.9-2.1-10.1-0.7-14.2,3.8c-3.2,3.5-4.9,7.8-4,12.8c1.1,7.2,8.4,12.1,13.5,13c3.8,0.7,7.8,0.7,11.6-0.3
			c3-0.5,5.8-1.9,8.3-3.4c2.4-1.4,4.9-3.5,7.8-3.5c2.6,0,5.2,0,7.8,0c4.6,0,8.4,0.9,11,2.8c2.6,2.1,4.6,4.4,5.8,7
			c2.1,4.6,2.6,9.5,2.6,14.5c0,5.8-0.7,10.4-1.4,13.9c-0.9,3.5-2.4,6.3-3.8,8.4c-3.5,4-9.1,5.2-14.2,5.2c-2.7,0-5.2,0-7.5-0.3
			c0-14.4,0-43.2,0-56.7c-6.1,7.8-13.9,12.3-23.4,12.1c0,10.7,0,34.6,0,45.3c-1.7,0-3.5,0-5.2,0s-3.5,0-5.2,0v1.4
			c11.3,0,22.4,0,33.5,0c3.6,0,7.1,0,10.7,0c0.1,0,0.2,0,0.3,0c3.5,0,7.5-0.3,12.1-1.1c4.6-0.9,8.6-2.4,12.8-4.4
			c4-2.1,7.5-4.9,10.1-8.4c2.8-3.5,4-8.1,4-13.5C92.1,388.2,90.9,384.1,88.9,380.7z M20.7,354.6c0.3-0.9,1.4-1.1,2.6-0.7
			c0.9,0.7,1.4,1.4,1.1,2.4c-0.3,0.9-1.4,1.1-2.6,0.7C21,356.3,20.3,355.2,20.7,354.6z M16.4,347.5c1.1,0,1.7,1.1,1.7,1.7
			c-0.3,0.9-1.1,1.4-2.4,1.1c-1.2-0.3-1.7-1.1-1.7-1.7C14.3,347.7,15.1,347.2,16.4,347.5z M14,353.8c0.7-0.7,1.7-0.9,2.8-0.3
			c1.1,0.7,1.7,1.7,1.1,2.4c-0.3,0.9-1.4,0.9-2.6,0.3C14.3,355.9,13.7,354.6,14,353.8z M47.3,366.8l-3.2,0.3h-2.1v-10.4
			c0,0,0,0,0-0.3c0-15,0-20.5,0-34.4c0.9,0,1.6-0.1,2.6-0.1c3.9,0,8.2-0.3,11.9,1.2c2.4,0.9,4,2.4,5.5,4.4c1.4,2,2.4,4.4,2.8,7.2
			c0.7,2.8,0.9,6.7,0.9,10.7c0,2.6-0.3,4.9-0.7,7.5c-0.3,2.4-1.1,4.6-2.4,6.7c-1.1,2.1-3.2,4-5.5,5.2
			C54.7,365.6,51.2,366.8,47.3,366.8z"/>
	</g>
</g>
</svg>
