<svg xmlns="http://www.w3.org/2000/svg" viewBox="509.8 339.5 102.3 102.3"><path fill="#D2D98D" d="M590.6 349.7l-60.2 80.5c8.6 6.7 19.3 10.8 31.1 10.8 27.8 0 50.3-22.5 50.3-50.3-.1-17-8.4-31.9-21.2-41z"/><path fill="#D95151" d="M566.2 385.1l12.8-17.3h6.2v-1.4h-7.1l-4.2 5.5-8.6 11.8v-.2l-23.5 31.4h10.9v-1.7h-8.8l12.5-17.3 11.4 17.3h-7.9v1.7h28.8v-1.7h-4.6"/><path fill="#E5897F" d="M590.9 349.2l-.9 1.2c12.8 8.7 21.3 23.5 21.3 40.2 0 26.9-21.7 48.6-48.6 48.6-11.7 0-22.4-4.1-30.8-11l-2.1 2.8c8.6 6.7 19.5 10.7 31.3 10.7 28.2 0 51.1-22.8 51.1-51.1-.1-17-8.5-32.1-21.3-41.4z"/></svg>