<svg xmlns="http://www.w3.org/2000/svg" viewBox="18.8 436.1 331.6 37.4"><g fill="#006875"><path d="M35.1 462.4h-.3l-15.3-7.2c-.3 0-.7-.7-.7-.9s.3-.7.7-.9l15.3-7.2h.3c.7 0 .9.7.9.9 0 .3-.3.7-.7.9l-13.5 6.3 13.5 6.7c.3 0 .7.7.7.9-.2.2-.6.5-.9.5zM54.6 465.9c-3.5 0-5.8-1.4-7.8-4.4v9.8h4.4c.9 0 1.1.3 1.1.9 0 .7-.3.9-1.1.9h-8.5c-.9 0-1.1-.3-1.1-.9 0-.7.3-.9 1.1-.9H45v-22.8h-2.3c-.9 0-1.1-.3-1.1-.9s.3-.9 1.1-.9h4v3.5c2.3-2.8 4.6-4.4 7.8-4.4 5.5 0 9.5 4.6 9.5 9.8.3 5.7-4.1 10.3-9.4 10.3zm-.1-17.7c-4.4 0-7.8 3.8-7.8 7.8s3.5 8.1 7.8 8.1 7.8-3.8 7.8-7.8c0-4.2-3.2-8.1-7.8-8.1zM89.4 450.3c-.3 0-.3 0-.7-.3-1.1-.9-2.1-1.4-2.8-1.4-2.1 0-3.5.9-8.4 5.5v9.5h7.9c.9 0 1.1.3 1.1.9 0 .5-.7.9-1.1.9H71.6c-.9 0-1.1-.3-1.1-.9 0-.5.7-.9 1.1-.9H76v-14.8h-3.5c-.9 0-1.1-.3-1.1-.9 0-.5.7-.9 1.1-.9h5.2v4.4c4-3.8 6.1-4.9 8.4-4.9 1.1 0 2.3.3 3.5 1.4.9.7.9.9.9 1.4-.2.5-.5 1-1.1 1zM105.9 465.9c-5.5 0-9.8-4.4-9.8-9.8s4.4-9.8 9.8-9.8 9.8 4.4 9.8 9.8c.3 5.6-4.2 9.8-9.8 9.8zm0-17.7c-4.6 0-8.1 3.5-8.1 7.8s3.8 8.1 8.1 8.1c4.6 0 8.1-3.5 8.1-7.8.3-4.6-3.5-8.1-8.1-8.1zM142.6 448.9h-2.3v17.7c0 1.7-.7 3.2-1.7 4.6-1.4 1.7-3.2 2.3-5.2 2.3h-4.9c-.9 0-1.1-.3-1.1-.9s.3-.9 1.1-.9h4.6c2.8 0 5.2-2.3 5.2-5.5v-4.6c-2.1 2.8-4.4 4.4-7.5 4.4-4.9 0-9-4.6-9-9.8 0-5.2 4-9.8 9-9.8 3.2 0 5.5 1.4 7.5 4.4V447h4c.9 0 1.1.3 1.1.9.4.7-.3 1-.8 1zm-11.6-.7c-4 0-7.2 3.8-7.2 7.8s3.2 7.8 7.2 7.8 7.2-3.8 7.2-7.8c0-3.9-3.1-7.8-7.2-7.8zM168.1 450.3c-.3 0-.3 0-.7-.3-1.1-.9-2.1-1.4-2.8-1.4-2.1 0-3.5.9-8.4 5.5v9.5h7.8c.9 0 1.1.3 1.1.9 0 .5-.7.9-1.1.9h-14c-.9 0-1.1-.3-1.1-.9 0-.5.7-.9 1.1-.9h4.4v-14.8h-3.2c-.9 0-1.1-.3-1.1-.9 0-.5.7-.9 1.1-.9h4.9v4.4c4-3.8 6.1-4.9 8.4-4.9 1.1 0 2.3.3 3.5 1.4.9.7.9.9.9 1.4 0 .5-.3 1-.8 1zM194.1 465.4h-4v-2.8c-2.6 2.6-5.2 3.8-8.4 3.8-4 0-6.9-2.3-6.9-5.5 0-3.8 3.8-6.3 9.3-6.3 2.1 0 3.5.3 6.1.9v-3.2c0-2.1-2.3-3.5-5.5-3.5-1.4 0-2.8.3-6.1 1.4h-.7c-.7 0-.9-.3-.9-.9 0-.7.3-.9.9-.9 2.3-.9 5.2-1.4 6.9-1.4 4 0 6.9 2.3 6.9 5.5V464h2.3c.9 0 1.1.3 1.1.9.1.2-.5.5-1 .5zm-4.3-9c-1.4-.3-3.8-.7-5.5-.7-4.6 0-7.8 1.7-7.8 4.6 0 2.3 2.1 3.8 4.9 3.8 3.2 0 5.5-1.1 8.4-3.8v-3.9zM222.4 465.4h-3.2v-13.9c0-1.7-1.4-3.2-2.8-3.2s-2.8 1.1-4.6 3.5v11.5h1.4c.9 0 1.1.3 1.1.9 0 .7-.3.9-1.1.9h-3.3v-13.5c0-1.7-1.4-3.2-2.8-3.2s-2.8 1.1-4.6 3.5v11.5h1.4c.9 0 1.1.3 1.1.9 0 .7-.7.9-1.1.9h-4.6c-.9 0-1.1-.3-1.1-.9 0-.7.3-.9 1.1-.9h1.4v-14.9h-1.4c-.9 0-1.1-.3-1.1-.9 0-.5.3-.9 1.1-.9h3.2v2.3c1.4-2.1 2.8-2.8 4.6-2.8s3.2.9 4.4 3.2c1.7-2.3 3.2-3.2 4.9-3.2 2.6 0 4.6 2.1 4.6 4.6v12.5h1.4c.9 0 1.1.3 1.1.9.1.9-.3 1.2-1.1 1.2zM248.7 465.4h-3.2v-13.9c0-1.7-1.4-3.2-2.8-3.2s-2.8 1.1-4.6 3.5v11.5h1.4c.9 0 1.1.3 1.1.9 0 .7-.3.9-1.1.9h-3.2v-13.5c0-1.7-1.4-3.2-2.8-3.2s-2.8 1.1-4.6 3.5v11.5h1.4c.9 0 1.1.3 1.1.9 0 .7-.7.9-1.1.9h-4.6c-.9 0-1.1-.3-1.1-.9 0-.7.3-.9 1.1-.9h1.4v-14.9h-1.4c-.9 0-1.1-.3-1.1-.9 0-.5.3-.9 1.1-.9h3.2v2.3c1.4-2.1 2.8-2.8 4.6-2.8 1.7 0 3.2.9 4.4 3.2 1.7-2.3 3.2-3.2 4.9-3.2 2.6 0 4.6 2.1 4.6 4.6v12.5h1.4c.9 0 1.1.3 1.1.9-.1.9-.3 1.2-1.2 1.2zM254.7 456.8c.7 4.6 4 7.5 9 7.5 2.6 0 5.8-.9 7.5-2.3.3-.3.7-.3.7-.3.7 0 .9.3.9.9 0 1.4-5.2 3.5-9.3 3.5-5.8 0-10.7-4.6-10.7-10.1 0-5.2 4.4-9.3 9.8-9.3 4.4 0 7.8 2.3 9.3 5.8.7 1.4.9 2.3.9 4.4h-18v-.1zm8.1-8.6c-4.4 0-7.5 2.6-8.1 6.7h16.5c-.9-3.9-4-6.7-8.4-6.7zM299.1 450.3c-.3 0-.3 0-.7-.3-1.1-.9-2.1-1.4-2.8-1.4-2.1 0-3.5.9-8.4 5.5v9.5h7.8c.9 0 1.1.3 1.1.9 0 .5-.7.9-1.1.9h-14c-.9 0-1.1-.3-1.1-.9 0-.5.7-.9 1.1-.9h4.4v-14.8h-3.2c-.9 0-1.1-.3-1.1-.9 0-.5.7-.9 1.1-.9h5.2v4.4c4-3.8 6.1-4.9 8.4-4.9 1.1 0 2.3.3 3.5 1.4.9.7.9.9.9 1.4-.4.5-.7 1-1.1 1zM323.5 437.6L309.3 468c-.3.7-.7.9-.9.9-.7 0-.9-.3-.9-.9 0-.3 0-.3.3-.7l14.2-30.4c.3-.7.7-.9.9-.9.7 0 .9.3.9.9 0 .2 0 .5-.3.7zM349.8 455l-15.3 7.2h-.3c-.7 0-.9-.7-.9-.9 0-.2.3-.7.7-.9l13.5-6.7L334 447c-.3 0-.7-.7-.7-.9 0-.7.7-.9.9-.9h.3l15.3 7.2c.3 0 .7.7.7.9-.1 1.4-.4 1.7-.7 1.7z"/></g></svg>