<svg xmlns="http://www.w3.org/2000/svg" viewBox="103.6 357.2 63.3 63.4"><path fill="#D95151" d="M166 382.7c-4.4-17.4-20.2-28.8-37.3-24.6-17.4 4.4-27.8 17.9-24.6 37.3 2.8 17.4 20.8 28.6 37.8 24.3 17.2-4 28.1-19.7 24.1-37zm-36.4-15.3c0-2.3 2.3-4 5.2-4.4 2.8 0 5.2 1.7 5.2 4s-2.3 4-5.2 4.4c-2.6 0-5.2-1.6-5.2-4zm14.7 16.3c-.7 2.3-3.5 3.5-6.3 2.6-3.2-.7-5.2-3.2-4.6-5.2.7-2.3 3.5-3.5 6.3-2.6 2.9.5 5.2 3.1 4.6 5.2zm16.2-3.1c-.7 2.3-3.2 3.5-5.8 2.8-2.8-.7-4.6-2.8-4.4-4.9.7-2.3 3.2-3.5 5.8-2.8 3 .6 4.6 2.7 4.4 4.9z"/></svg>