<svg xmlns="http://www.w3.org/2000/svg" viewBox="-0.1 319.6 91.6 102.7"><path fill="#D95151" d="M88.9 380.7c-2.1-3.2-4.9-6.1-8.1-8.1-3.2-2-7-3.5-11-4.4-4-.9-7.8-1.4-11.6-1.7v-.7c2.4-.3 4.9-.9 8.4-1.7 3.2-.9 6.3-2.4 9.3-4 2.8-1.7 5.5-4 7.8-7 2.1-2.8 3.2-6.1 3.2-10.1 0-4.6-1.1-8.4-3.2-11.3-2.1-2.8-4.9-5.5-8.4-7.2-3.5-1.7-7-3.2-11-3.8-4-.9-7.8-1.1-11.6-1.1h-11H8.2v2.1h10.4V338c.3 0 .7.3 1.1.3 9.8 2.6 15.6 11.3 13.5 21.1-1.1 5.8-4 10.7-9.3 13.5-4.4 2.4-9 3.2-13.5.9-1.1-.7-2.1-1.4-2.6-2.4-.3-.7-.7-1.4 0-2.1.3-.3.9-.7 1.4-.7 1.4.7 2.8.9 4.6.9 7 0 12.5-4.9 12.5-11.6 0-5.5-3.2-10.1-7.8-11.8-4.9-2.1-10.1-.7-14.2 3.8-3.2 3.5-4.9 7.8-4 12.8 1.1 7.2 8.4 12.1 13.5 13 3.8.7 7.8.7 11.6-.3 3-.5 5.8-1.9 8.3-3.4 2.4-1.4 4.9-3.5 7.8-3.5h7.8c4.6 0 8.4.9 11 2.8 2.6 2.1 4.6 4.4 5.8 7 2.1 4.6 2.6 9.5 2.6 14.5 0 5.8-.7 10.4-1.4 13.9-.9 3.5-2.4 6.3-3.8 8.4-3.5 4-9.1 5.2-14.2 5.2-2.7 0-5.2 0-7.5-.3v-56.7c-6.1 7.8-13.9 12.3-23.4 12.1v45.3H8v1.4h44.5c3.5 0 7.5-.3 12.1-1.1 4.6-.9 8.6-2.4 12.8-4.4 4-2.1 7.5-4.9 10.1-8.4 2.8-3.5 4-8.1 4-13.5.6-6.5-.6-10.6-2.6-14zm-68.2-26.1c.3-.9 1.4-1.1 2.6-.7.9.7 1.4 1.4 1.1 2.4-.3.9-1.4 1.1-2.6.7-.8-.7-1.5-1.8-1.1-2.4zm-4.3-7.1c1.1 0 1.7 1.1 1.7 1.7-.3.9-1.1 1.4-2.4 1.1-1.2-.3-1.7-1.1-1.7-1.7.3-.9 1.1-1.4 2.4-1.1zm-2.4 6.3c.7-.7 1.7-.9 2.8-.3 1.1.7 1.7 1.7 1.1 2.4-.3.9-1.4.9-2.6.3-1-.3-1.6-1.6-1.3-2.4zm33.3 13l-3.2.3H42v-10.4-.3V322c.9 0 1.6-.1 2.6-.1 3.9 0 8.2-.3 11.9 1.2 2.4.9 4 2.4 5.5 4.4 1.4 2 2.4 4.4 2.8 7.2.7 2.8.9 6.7.9 10.7 0 2.6-.3 4.9-.7 7.5-.3 2.4-1.1 4.6-2.4 6.7-1.1 2.1-3.2 4-5.5 5.2-2.4.8-5.9 2-9.8 2z"/></svg>