<svg xmlns="http://www.w3.org/2000/svg" viewBox="509.8 339.5 102.3 102.3"><path fill="#D2D98D" d="M530.5 430.3l60.1-80.6c-8.2-5.9-18.3-9.4-29.2-9.4-27.8 0-50.3 22.5-50.3 50.3 0 16.2 7.6 30.5 19.4 39.7z"/><path fill="#E5897F" d="M529.8 431.2l2.1-2.8c-10.9-8.9-17.9-22.5-17.9-37.7 0-26.9 21.7-48.6 48.6-48.6 10.2 0 19.6 3.1 27.4 8.5l.9-1.2c-8.4-6.1-18.8-9.8-30-9.8-28.2 0-51.1 22.8-51.1 51.1 0 16.4 7.9 31.1 20 40.5z"/><g fill="#D95151"><path d="M555.6 394.3l-13.9 18.9h-7.5v1.7h7.8l23.3-31.3-9.7-15.8h6.9v-1.4H533v1.4h5.8M567.4 380.9l10.8-14.5h-9v1.4h7.7"/></g></svg>