<svg xmlns="http://www.w3.org/2000/svg" viewBox="-0.1 318.5 612.2 154.9"><g fill="#006875"><path d="M35.1 462.4h-.3l-15.3-7.2c-.3 0-.7-.7-.7-.9s.3-.7.7-.9l15.3-7.2h.3c.7 0 .9.7.9.9 0 .3-.3.7-.7.9l-13.5 6.3 13.5 6.7c.3 0 .7.7.7.9-.2.2-.6.5-.9.5zM54.6 465.9c-3.5 0-5.8-1.4-7.8-4.4v9.8h4.4c.9 0 1.1.3 1.1.9 0 .7-.3.9-1.1.9h-8.5c-.9 0-1.1-.3-1.1-.9 0-.7.3-.9 1.1-.9H45v-22.8h-2.3c-.9 0-1.1-.3-1.1-.9 0-.5.3-.9 1.1-.9h4v3.5c2.3-2.8 4.6-4.4 7.8-4.4 5.5 0 9.5 4.6 9.5 9.8.3 5.7-4.1 10.3-9.4 10.3zm-.1-17.7c-4.4 0-7.8 3.8-7.8 7.8s3.5 8.1 7.8 8.1 7.8-3.8 7.8-7.8c0-4.2-3.2-8.1-7.8-8.1zM89.4 450.3c-.3 0-.3 0-.7-.3-1.1-.9-2.1-1.4-2.8-1.4-2.1 0-3.5.9-8.4 5.5v9.5h7.9c.9 0 1.1.3 1.1.9s-.7.9-1.1.9H71.6c-.9 0-1.1-.3-1.1-.9s.7-.9 1.1-.9H76v-14.8h-3.5c-.9 0-1.1-.3-1.1-.9s.7-.9 1.1-.9h5.2v4.4c4-3.8 6.1-4.9 8.4-4.9 1.1 0 2.3.3 3.5 1.4.9.7.9.9.9 1.4-.2.5-.5 1-1.1 1zM105.9 465.9c-5.5 0-9.8-4.4-9.8-9.8 0-5.5 4.4-9.8 9.8-9.8s9.8 4.4 9.8 9.8c.3 5.6-4.2 9.8-9.8 9.8zm0-17.7c-4.6 0-8.1 3.5-8.1 7.8s3.8 8.1 8.1 8.1c4.6 0 8.1-3.5 8.1-7.8.3-4.6-3.5-8.1-8.1-8.1zM142.6 448.9h-2.3v17.7c0 1.7-.7 3.2-1.7 4.6-1.4 1.7-3.2 2.3-5.2 2.3h-4.9c-.9 0-1.1-.3-1.1-.9 0-.5.3-.9 1.1-.9h4.6c2.8 0 5.2-2.3 5.2-5.5v-4.6c-2.1 2.8-4.4 4.4-7.5 4.4-4.9 0-9-4.6-9-9.8 0-5.2 4-9.8 9-9.8 3.2 0 5.5 1.4 7.5 4.4V447h4c.9 0 1.1.3 1.1.9.4.7-.3 1-.8 1zm-11.6-.7c-4 0-7.2 3.8-7.2 7.8s3.2 7.8 7.2 7.8 7.2-3.8 7.2-7.8c0-3.9-3.1-7.8-7.2-7.8zM168.1 450.3c-.3 0-.3 0-.7-.3-1.1-.9-2.1-1.4-2.8-1.4-2.1 0-3.5.9-8.4 5.5v9.5h7.8c.9 0 1.1.3 1.1.9s-.7.9-1.1.9h-14c-.9 0-1.1-.3-1.1-.9s.7-.9 1.1-.9h4.4v-14.8h-3.2c-.9 0-1.1-.3-1.1-.9s.7-.9 1.1-.9h4.9v4.4c4-3.8 6.1-4.9 8.4-4.9 1.1 0 2.3.3 3.5 1.4.9.7.9.9.9 1.4 0 .5-.3 1-.8 1zM194.1 465.4h-4v-2.8c-2.6 2.6-5.2 3.8-8.4 3.8-4 0-6.9-2.3-6.9-5.5 0-3.8 3.8-6.3 9.3-6.3 2.1 0 3.5.3 6.1.9v-3.2c0-2.1-2.3-3.5-5.5-3.5-1.4 0-2.8.3-6.1 1.4h-.7c-.7 0-.9-.3-.9-.9 0-.7.3-.9.9-.9 2.3-.9 5.2-1.4 6.9-1.4 4 0 6.9 2.3 6.9 5.5V464h2.3c.9 0 1.1.3 1.1.9.1.2-.5.5-1 .5zm-4.3-9c-1.4-.3-3.8-.7-5.5-.7-4.6 0-7.8 1.7-7.8 4.6 0 2.3 2.1 3.8 4.9 3.8 3.2 0 5.5-1.1 8.4-3.8v-3.9zM222.4 465.4h-3.2v-13.9c0-1.7-1.4-3.2-2.8-3.2s-2.8 1.1-4.6 3.5v11.5h1.4c.9 0 1.1.3 1.1.9 0 .7-.3.9-1.1.9h-3.3v-13.5c0-1.7-1.4-3.2-2.8-3.2s-2.8 1.1-4.6 3.5v11.5h1.4c.9 0 1.1.3 1.1.9 0 .7-.7.9-1.1.9h-4.6c-.9 0-1.1-.3-1.1-.9 0-.7.3-.9 1.1-.9h1.4v-14.9h-1.4c-.9 0-1.1-.3-1.1-.9s.3-.9 1.1-.9h3.2v2.3c1.4-2.1 2.8-2.8 4.6-2.8s3.2.9 4.4 3.2c1.7-2.3 3.2-3.2 4.9-3.2 2.6 0 4.6 2.1 4.6 4.6v12.5h1.4c.9 0 1.1.3 1.1.9.1.9-.3 1.2-1.1 1.2zM248.7 465.4h-3.2v-13.9c0-1.7-1.4-3.2-2.8-3.2s-2.8 1.1-4.6 3.5v11.5h1.4c.9 0 1.1.3 1.1.9 0 .7-.3.9-1.1.9h-3.2v-13.5c0-1.7-1.4-3.2-2.8-3.2s-2.8 1.1-4.6 3.5v11.5h1.4c.9 0 1.1.3 1.1.9 0 .7-.7.9-1.1.9h-4.6c-.9 0-1.1-.3-1.1-.9 0-.7.3-.9 1.1-.9h1.4v-14.9h-1.4c-.9 0-1.1-.3-1.1-.9s.3-.9 1.1-.9h3.2v2.3c1.4-2.1 2.8-2.8 4.6-2.8 1.7 0 3.2.9 4.4 3.2 1.7-2.3 3.2-3.2 4.9-3.2 2.6 0 4.6 2.1 4.6 4.6v12.5h1.4c.9 0 1.1.3 1.1.9-.1.9-.3 1.2-1.2 1.2zM254.7 456.8c.7 4.6 4 7.5 9 7.5 2.6 0 5.8-.9 7.5-2.3.3-.3.7-.3.7-.3.7 0 .9.3.9.9 0 1.4-5.2 3.5-9.3 3.5-5.8 0-10.7-4.6-10.7-10.1 0-5.2 4.4-9.3 9.8-9.3 4.4 0 7.8 2.3 9.3 5.8.7 1.4.9 2.3.9 4.4h-18v-.1zm8.1-8.6c-4.4 0-7.5 2.6-8.1 6.7h16.5c-.9-3.9-4-6.7-8.4-6.7zM299.1 450.3c-.3 0-.3 0-.7-.3-1.1-.9-2.1-1.4-2.8-1.4-2.1 0-3.5.9-8.4 5.5v9.5h7.8c.9 0 1.1.3 1.1.9s-.7.9-1.1.9h-14c-.9 0-1.1-.3-1.1-.9s.7-.9 1.1-.9h4.4v-14.8h-3.2c-.9 0-1.1-.3-1.1-.9s.7-.9 1.1-.9h5.2v4.4c4-3.8 6.1-4.9 8.4-4.9 1.1 0 2.3.3 3.5 1.4.9.7.9.9.9 1.4-.4.5-.7 1-1.1 1zM323.5 437.6L309.3 468c-.3.7-.7.9-.9.9-.7 0-.9-.3-.9-.9 0-.3 0-.3.3-.7l14.2-30.4c.3-.7.7-.9.9-.9.7 0 .9.3.9.9 0 .2 0 .5-.3.7zM349.8 455l-15.3 7.2h-.3c-.7 0-.9-.7-.9-.9 0-.2.3-.7.7-.9l13.5-6.7L334 447c-.3 0-.7-.7-.7-.9 0-.7.7-.9.9-.9h.3l15.3 7.2c.3 0 .7.7.7.9-.1 1.4-.4 1.7-.7 1.7z"/></g><path fill="#D95151" d="M588.7 414.9h-28.8v-1.7h7.9l-11.4-17.3-12.5 17.3h8.8v1.7h-18.5v-1.7h7.5l13.9-18.9-16.8-26.5H533v-1.4h29.5v1.4h-6.9l9.7 15.9 11.6-15.9h-7.7v-1.4h16v1.4H579l-12.8 17.3 17.9 28.1h4.6"/><path fill="#E5897F" d="M561 339.5c-28.2 0-51.1 22.8-51.1 51.1 0 28.2 22.8 51.1 51.1 51.1 28.2 0 51.1-22.8 51.1-51.1s-23-51.1-51.1-51.1zm1.6 99.8c-26.9 0-48.6-21.7-48.6-48.6s21.7-48.6 48.6-48.6 48.6 21.7 48.6 48.6-21.7 48.6-48.6 48.6z"/><path fill="#D95151" d="M497.8 359.8c-1.4-1.4-3.5-2.1-6.1-2.1-3.2 0-5.5.7-7.5 1.7s-4 2.6-6.3 4.9c-2.3-1.7-4.9-3.2-7.8-4.6-3.2-1.4-6.7-2.1-11-2.1-4.4 0-8.1.7-11.5 1.7-3.5 1.1-6.3 2.6-8.6 4.6-2.3 2-4 4.4-5.5 6.9-1.1 2.6-2.1 5.5-2.1 8.4 0 2.1.3 3.8.9 5.5.7 1.4 1.4 2.8 2.3 4 .9 1.1 1.7 2.3 2.8 3.2s2.1 1.7 2.8 2.3c-2.8 1.7-5.2 3.2-6.9 5.2-1.7 1.7-3.2 3.5-3.8 5.2-.9 1.7-1.4 3.2-1.7 4.4-.3 1.1-.3 2.1-.3 2.6 0 2.8.7 5.5 2.1 7.2 1.4 2.1 3.2 3.5 5.2 4.6 2.1 1.1 4.4 2.1 6.7 2.3 2.3.7 4.6.7 6.3.7l17.7.3c1.4 0 2.8.3 4.6.7 1.7.3 3.2 1.1 4.6 2.1 1.4 1.1 2.6 2.3 3.5 4 .9 1.7 1.4 4 1.4 6.9 0 2.8-.7 5.5-1.7 7.8-1.1 2.3-2.6 4.4-4.4 6.1-1.7 1.7-4 2.8-6.3 4-2.3.9-4.9 1.4-7.8 1.4-3.5 0-6.7-.7-8.6-1.7-1.7-.9-2.8-1.7-4-2.8 4-1.7 6.9-5.8 6.9-10.7 0-6.9-4.9-12.8-11.5-12.8-5.2 0-9.3 2.3-11.3 6.7-.9 1.7-1.4 3.8-1.4 6.1 0 1.4.3 2.8.9 4.9.7 2.1 1.7 3.8 3.8 5.8 2.1 1.7 4.6 3.5 8.1 4.6 3.5 1.4 8.4 2.1 14.2 2.1 5.2 0 10.1-.9 14.2-2.6 4-1.7 7.5-4 10.7-6.7 2.8-2.6 5.2-5.8 6.7-9.3 1.4-3.5 2.3-7.2 2.3-10.7 0-4.4-.9-8.1-2.3-10.7-1.4-2.8-3.5-5.2-6.1-6.9-2.3-1.7-5.2-2.8-8.6-3.5-3.2-.7-6.7-1.1-10.4-1.1h-15.6c-3.2 0-5.8-.7-7.5-1.7-2.1-1.1-2.8-2.8-2.8-5.2 0-1.1.3-2.3.7-3.5.7-1.1 2.1-2.8 4.9-4.6 2.1.9 4.4 1.4 7.2 2.3 2.8.9 6.3 1.1 10.1 1.1 4.6 0 8.6-.7 11.8-1.7 3.2-1.1 5.8-2.6 7.8-4.6 2.1-2.1 3.5-4 4.4-6.3.9-2.3 1.4-4.6 1.4-6.9 0-3.8-.7-6.9-2.1-9-1.4-2.1-2.6-3.8-3.8-4.9 2.1-1.4 3.2-2.3 4-2.6.9-.3 1.4-.7 2.1-.7 1.1 0 1.7.3 1.7.9.3.7.3 1.7.7 2.8 0 .3.3.9.3 1.4s.3 1.1.9 1.7c.3.7 1.1.9 1.7 1.4.9.3 1.7.7 3.2.7 2.1 0 3.5-.7 4.6-1.7 1.1-1.1 1.7-2.6 1.7-4.4-.5-1.9-1.2-3.5-2.6-5.1zm-49.9 81c.3-.9 1.4-1.1 2.3-.9 1.1.3 1.7 1.4 1.4 2.1-.3.9-1.4 1.1-2.3.9-1.2-.4-1.7-1.2-1.4-2.1zm-7.3-5.5c0-.9 1.1-1.4 2.3-1.4 1.1 0 2.1.9 1.7 1.7 0 .9-1.1 1.4-2.3 1.4-1.1.1-2-.9-1.7-1.7zm4.6 6.9c-.3.9-1.4 1.1-2.6.7-1.1-.7-1.7-1.4-1.4-2.3.3-.9 1.4-1.1 2.6-.7 1.1.6 1.7 1.8 1.4 2.3zm23.1-54c-.7 2.3-1.1 4.4-2.3 5.5-.9 1.1-2.1 2.1-3.5 2.6-1.4.3-2.8.7-4.6.7s-3.2-.3-4.6-.7c-1.4-.3-2.6-1.1-3.5-2.6-.9-1.4-1.7-3.5-2.3-6.1s-.9-6.1-.9-10.7c0-2.3 0-4.4.3-6.3.3-2.1.9-4 1.7-5.5.9-1.7 2.1-2.8 3.5-3.8 1.4-.9 3.5-1.4 5.8-1.4 2.6 0 4.6.7 6.1 1.4 1.5.8 2.6 2.3 3.2 4 .9 1.7 1.1 3.8 1.4 6.1.3 2.3.3 4.9.3 7.5.3 3.8.1 6.9-.6 9.3zM355.3 418.5v-56.6H346v-2.1h26.3V374h.3c.3-.9 1.1-2.1 2.1-3.8.9-1.7 2.3-3.5 4-5.2 1.7-1.7 4-3.2 6.9-4.4 2.8-1.1 6.3-2.1 10.7-2.1 6.3 0 11 1.7 14.5 5.5 3.5 3.5 5.2 8.4 5.2 14.8v39.9h9.5v2.1H390v-2.1h8.6v-44.8c0-4-.9-6.9-2.3-8.6-1.7-1.7-3.8-2.8-6.7-2.8-2.3 0-4.4.7-6.7 1.7-2.1 1.1-3.8 2.6-5.5 4.9-1.4 2.3-2.8 4.9-3.8 8.1-.9 3.2-1.4 6.9-1.4 11.3v30.4h9v2.1h-35.5v-2.1h9.5l.1-.4z"/><path fill="#E5897F" d="M334.7 334.2l.3-7.2s.7-2.6-4.6-3.8c-5.2-1.2-11.3.3-11.5 2.3-.7 2.1-.3 8.1-.3 8.1l16.1.6z"/><path fill="#D95151" d="M339.1 337.3c-2.6-4.6-9.3-4.6-12.8-4.9-3.5 0-9.8-.7-13 4-2.8 4.6 2.6 7.5 2.6 7.5l9.8.3 9.8.3c.4.4 6.2-2.3 3.6-7.2z"/><path fill="#E5897F" d="M325.2 366.9c-3.1.1-4.4-.8-5.2-1.2-1.7 4.9-8.5 9-8.9 21.1-.3 9.8 6.1 32.1 9 32.3h6.4c2.6 0 11-22 11.3-31.5.7-12.1-6.1-17-7.5-22-1.1.8-2.3 1.3-5.1 1.3zM319.4 357.8c.7 2.5.9 4.4.9 6.1v.9c.7.3 2.3 1.1 4.8 1.2 2.6-.1 4.4-.9 4.9-1.2v-.9c0-1.9.3-3.7.9-6.1-6.7 2.5-11.5 0-11.5 0zM330.5 335.2c-1.4-.9-3-1.1-4.4-1.1s-3 0-4.4.9c-3 1.7-4.2 3.8-4.4 9.3-.3 4.4.9 8.7 2.1 12.6 1.1.7 3.6 1 5.9 1 2.6 0 5-.4 5.9-1 1.1-4.4 2.8-8.5 3.2-12 .5-5.6-.8-7.6-3.9-9.7z"/><path fill="#D95151" d="M343.8 418.5v2.1h-36.1v-2.1h36.1zM343.6 349.9s-2.4-.3-2.2 2.4c.2-1.1 2-1.3 1.9.3-.2 3.6-7.5 1.5-10.2-.2-4.4-3.1-6.9-3.2-7.2-3.2-.3 0-3 0-7.4 2.8-2.6 1.7-10.2 3.4-10.2-.2 0-1.7 1.6-1.4 1.9-.3.2-2.6-2.1-2.5-2.1-2.5s-2.2-.1-2.3 2.7c-.3 5 6.1 7.2 13.8 5.1 3.8-1.5 4.4-2.7 6.1-2.8 1.7.1 2.3 1.4 6 3.1 7.5 2.4 14 .5 14-4.5 0-2.7-2.1-2.7-2.1-2.7z"/><g><path fill="#D95151" d="M296.7 318.5v100h9.5v2.1h-36.1v-2.1h9.5v-98.2h-9.5v-1.7h26.6z"/></g><g><path fill="#D95151" d="M166.3 361.9v-2.1h35.8v2.1h-9.3l14.5 36.7 11.3-30-2.8-6.7h-7.2v-2.1h35.5v2.1h-9.7l14.5 36.7 13.9-36.7H253v-2.1h19.1v2.1h-6.9L242 424.6h-.9L220 371.7l-19.7 52.9h-.9l-24.9-62.7h-8.2z"/></g><g><path fill="#D95151" d="M166 382.7c-4.4-17.4-20.2-28.8-37.3-24.6-17.4 4.4-27.8 17.9-24.6 37.3 2.8 17.4 20.8 28.6 37.8 24.3 17.2-4 28.1-19.7 24.1-37zm-36.4-15.3c0-2.3 2.3-4 5.2-4.4 2.8 0 5.2 1.7 5.2 4s-2.3 4-5.2 4.4c-2.6 0-5.2-1.6-5.2-4zm14.7 16.3c-.7 2.3-3.5 3.5-6.3 2.6-3.2-.7-5.2-3.2-4.6-5.2.7-2.3 3.5-3.5 6.3-2.6 2.9.5 5.2 3.1 4.6 5.2zm16.2-3.1c-.7 2.3-3.2 3.5-5.8 2.8-2.8-.7-4.6-2.8-4.4-4.9.7-2.3 3.2-3.5 5.8-2.8 3 .6 4.6 2.7 4.4 4.9z"/></g><g><path fill="#D95151" d="M88.9 380.7c-2.1-3.2-4.9-6.1-8.1-8.1-3.2-2-7-3.5-11-4.4s-7.8-1.4-11.6-1.7v-.7c2.4-.3 4.9-.9 8.4-1.7 3.2-.9 6.3-2.4 9.3-4 2.8-1.7 5.5-4 7.8-7 2.1-2.8 3.2-6.1 3.2-10.1 0-4.6-1.1-8.4-3.2-11.3-2.1-2.8-4.9-5.5-8.4-7.2-3.5-1.7-7-3.2-11-3.8-4-.9-7.8-1.1-11.6-1.1h-11H8.2v2.1h10.4V338c.3 0 .7.3 1.1.3 9.8 2.6 15.6 11.3 13.5 21.1-1.1 5.8-4 10.7-9.3 13.5-4.4 2.4-9 3.2-13.5.9-1.1-.7-2.1-1.4-2.6-2.4-.3-.7-.7-1.4 0-2.1.3-.3.9-.7 1.4-.7 1.4.7 2.8.9 4.6.9 7 0 12.5-4.9 12.5-11.6 0-5.5-3.2-10.1-7.8-11.8-4.9-2.1-10.1-.7-14.2 3.8-3.2 3.5-4.9 7.8-4 12.8 1.1 7.2 8.4 12.1 13.5 13 3.8.7 7.8.7 11.6-.3 3-.5 5.8-1.9 8.3-3.4 2.4-1.4 4.9-3.5 7.8-3.5h7.8c4.6 0 8.4.9 11 2.8 2.6 2.1 4.6 4.4 5.8 7 2.1 4.6 2.6 9.5 2.6 14.5 0 5.8-.7 10.4-1.4 13.9-.9 3.5-2.4 6.3-3.8 8.4-3.5 4-9.1 5.2-14.2 5.2-2.7 0-5.2 0-7.5-.3v-56.7c-6.1 7.8-13.9 12.3-23.4 12.1v45.3H8v1.4h44.5c3.5 0 7.5-.3 12.1-1.1 4.6-.9 8.6-2.4 12.8-4.4 4-2.1 7.5-4.9 10.1-8.4 2.8-3.5 4-8.1 4-13.5.6-6.5-.6-10.6-2.6-14zm-68.2-26.1c.3-.9 1.4-1.1 2.6-.7.9.7 1.4 1.4 1.1 2.4-.3.9-1.4 1.1-2.6.7-.8-.7-1.5-1.8-1.1-2.4zm-4.3-7.1c1.1 0 1.7 1.1 1.7 1.7-.3.9-1.1 1.4-2.4 1.1-1.2-.3-1.7-1.1-1.7-1.7.3-.9 1.1-1.4 2.4-1.1zm-2.4 6.3c.7-.7 1.7-.9 2.8-.3 1.1.7 1.7 1.7 1.1 2.4-.3.9-1.4.9-2.6.3-1-.3-1.6-1.6-1.3-2.4zm33.3 13l-3.2.3H42v-10.4-.3V322c.9 0 1.6-.1 2.6-.1 3.9 0 8.2-.3 11.9 1.2 2.4.9 4 2.4 5.5 4.4 1.4 2 2.4 4.4 2.8 7.2.7 2.8.9 6.7.9 10.7 0 2.6-.3 4.9-.7 7.5-.3 2.4-1.1 4.6-2.4 6.7-1.1 2.1-3.2 4-5.5 5.2-2.4.8-5.9 2-9.8 2z"/></g></svg>