<svg xmlns="http://www.w3.org/2000/svg" viewBox="509.8 339.5 102.3 102.3"><circle fill="#D2D98D" cx="561.4" cy="390.6" r="50.3"/><path fill="#D95151" d="M588.7 414.9h-28.8v-1.7h7.9l-11.4-17.3-12.5 17.3h8.8v1.7h-18.5v-1.7h7.5l13.9-18.9-16.8-26.5H533v-1.4h29.5v1.4h-6.9l9.7 15.9 11.6-15.9h-7.7v-1.4h16v1.4H579l-12.8 17.3 17.9 28.1h4.6"/><path fill="#E5897F" d="M561 339.5c-28.2 0-51.1 22.8-51.1 51.1 0 28.2 22.8 51.1 51.1 51.1 28.2 0 51.1-22.8 51.1-51.1s-23-51.1-51.1-51.1zm1.6 99.8c-26.9 0-48.6-21.7-48.6-48.6s21.7-48.6 48.6-48.6 48.6 21.7 48.6 48.6-21.7 48.6-48.6 48.6z"/></svg>